<?xml version="1.0" encoding="UTF-8"?>
<svg version="1.1" xmlns="http://www.w3.org/2000/svg" width="386" height="346">
<path d="M0 0 C0.64291992 0.25620117 1.28583984 0.51240234 1.94824219 0.77636719 C6.89046042 2.78092084 6.89046042 2.78092084 8 5 C9.66338073 5.6748235 11.33078036 6.33975156 13 7 C41.44595722 23.95664302 61.9256137 52.54376842 70.37744141 84.39355469 C77.54315436 114.39400627 72.72890514 143.51676367 57.16943359 170.12158203 C55.15662528 173.35468165 52.93449842 176.41128961 50.625 179.4375 C50.19614502 179.99953125 49.76729004 180.5615625 49.32543945 181.140625 C48.27014426 182.47105899 47.14102981 183.74232217 46 185 C45.34 185 44.68 185 44 185 C43.77054688 185.56332031 43.54109375 186.12664062 43.3046875 186.70703125 C38.47687862 195.19183309 27.10128158 202.61648383 19 208 C18.34 208 17.68 208 17 208 C17.66 208.99 18.32 209.98 19 211 C29.10871677 206.42303978 37.49304847 201.08539516 46 194 C46.8353125 193.31808594 47.670625 192.63617188 48.53125 191.93359375 C66.84431511 176.41138959 79.43896636 152.36144188 81.8190918 128.46386719 C83.57815384 104.50643924 80.66023143 82.35509789 69.5 60.875 C68.94868408 59.80862305 68.94868408 59.80862305 68.38623047 58.72070312 C66.0815352 54.46368756 63.56536182 51.34024512 60 48 C59.31822584 46.67432801 58.64808564 45.34246312 58 44 C57.01 43.34 56.02 42.68 55 42 C55 41.34 55 40.68 55 40 C54.195625 39.566875 53.39125 39.13375 52.5625 38.6875 C50 37 50 37 49.1875 34.3125 C49.125625 33.549375 49.06375 32.78625 49 32 C49.886875 32.598125 50.77375 33.19625 51.6875 33.8125 C53.7090624 35.14749404 55.76598653 36.43294891 57.875 37.625 C58.57625 38.07875 59.2775 38.5325 60 39 C60 39.66 60 40.32 60 41 C60.53109375 41.2165625 61.0621875 41.433125 61.609375 41.65625 C64.88669285 43.49840252 67.50802551 45.96137769 70.25 48.5 C70.80429687 48.99886719 71.35859375 49.49773437 71.9296875 50.01171875 C73.3285008 51.2968354 74.66944254 52.64433768 76 54 C76 54.66 76 55.32 76 56 C76.66 56 77.32 56 78 56 C88.91387814 68.76943694 95.14965203 83.75919577 99 100 C99.17660156 100.7326709 99.35320312 101.4653418 99.53515625 102.22021484 C105.00963393 126.76249378 100.494088 154.69619641 87.63818359 176.28710938 C67.66040711 207.66042107 35.33583429 229.91574605 -1 238 C-13.18138315 240.45201592 -25.56106638 242.62256534 -38 243 C-39.10085937 243.03996094 -40.20171875 243.07992188 -41.3359375 243.12109375 C-79.57492354 243.82615098 -116.41107993 233.90434139 -146 209 C-147.32064453 207.89011719 -147.32064453 207.89011719 -148.66796875 206.7578125 C-174.52795186 184.22554814 -190.43150677 153.18065178 -192.87109375 118.94824219 C-192.93490234 117.9838623 -192.93490234 117.9838623 -193 117 C-193.0721875 116.00226563 -193.144375 115.00453125 -193.21875 113.9765625 C-194.15486711 86.75115651 -184.80825503 60.59226667 -168.98046875 38.76953125 C-166.98407237 36.05768784 -166.98407237 36.05768784 -165.375 33.28125 C-163.6161317 30.36312759 -161.46623663 28.35662612 -159 26 C-158.46890625 25.43667969 -157.9378125 24.87335938 -157.390625 24.29296875 C-115.70242106 -19.44401445 -53.07722813 -22.53627088 0 0 Z M-64.1875 9.5625 C-66.65485184 12.88066282 -66.51451424 14.95738812 -66 19 C-64.46039301 21.4309584 -63.33797009 21.88437865 -60.625 22.8125 C-57.41553197 23.04174772 -55.76693979 22.64520744 -53 21 C-51.32221688 18.80581563 -51.32221688 18.80581563 -51 16 C-52.2262251 12.32132471 -53.06591803 10.51374509 -56.5 8.625 C-59.83224559 7.7919386 -61.33436758 7.52454827 -64.1875 9.5625 Z M-118 17 C-118.25015873 20.58357241 -118.25015873 20.58357241 -118 24 C-115.53606281 25.55136786 -114.31910854 26.03039129 -111.375 25.75 C-108.84399771 25.1515662 -108.84399771 25.1515662 -107 23 C-106.58333333 20 -106.58333333 20 -107 17 C-111.32765982 14.11489345 -113.67234018 14.11489345 -118 17 Z M-11 17 C-11.41666667 20.5 -11.41666667 20.5 -11 24 C-7.54337669 26.30441554 -6.05142119 26.25860135 -2 26 C-1.34 25.67 -0.68 25.34 0 25 C0.94497175 21.72894395 1.33753855 19.80165405 0 16.625 C-2.03623335 14.66847811 -2.03623335 14.66847811 -5.5625 14.625 C-9.06110754 14.64360592 -9.06110754 14.64360592 -11 17 Z M-103 38 C-105.40668747 39.99114614 -105.40668747 39.99114614 -105.4375 43.875 C-105.33627478 47.14397916 -105.10848546 47.86100301 -103 50.5625 C-98.72922263 52.60891416 -96.59345034 52.11131863 -92 51 C-89.85219923 50.10242444 -89.85219923 50.10242444 -89 48 C-88.32433114 42.4060195 -88.32433114 42.4060195 -90.6875 37.5625 C-95.56593647 34.26625914 -98.28477461 34.55915985 -103 38 Z M-25.9375 38.125 C-28.17743666 40.83767184 -28.17743666 40.83767184 -28.625 44 C-27.76936783 48.10703441 -26.38121991 49.55401113 -23 52 C-19.28435707 52.52149375 -17.02207101 52.4841389 -13.625 50.875 C-11.36900957 48.27193412 -11.13664903 46.41622583 -11 43 C-12.04897582 39.15375534 -12.60537461 38.26308359 -16 36 C-20.40184998 35.42938982 -22.29837208 35.49243938 -25.9375 38.125 Z M-66 42 C-68.60361081 46.58186079 -68.60361081 46.58186079 -68.5 51.6875 C-66.5492456 54.69491304 -65.16814585 56.24740868 -62 58 C-58.09251052 58.22662066 -54.41191135 58.13273797 -51.28125 55.62109375 C-49.31805463 53.13717278 -49.12518629 51.12965737 -49 48 C-50.73890739 43.84594345 -52.9167689 41.84717597 -57 40 C-60.55679134 39.56624496 -63.1263027 39.79683207 -66 42 Z M-149.625 58.1875 C-151.39512597 60.52084787 -151.85731002 62.07485537 -152 65 C-151.14782671 67.44202118 -151.14782671 67.44202118 -149 69 C-145.5 69.75 -145.5 69.75 -142 69 C-139.59571471 66.37031296 -139 64.86798166 -139 61.3125 C-139.81198347 58.78799782 -139.81198347 58.78799782 -142.375 57.6875 C-146.19140415 56.63989164 -146.19140415 56.63989164 -149.625 58.1875 Z M22.1875 58.1875 C20.59117943 60.62398929 20 62.05861032 20 65 C21.8735887 68.0405988 21.8735887 68.0405988 25 70 C29.02034924 69.93185849 31.1176825 69.8823175 34 67 C33.83582968 63.43407381 33.83582968 63.43407381 33 60 C32.34 59.67 31.68 59.34 31 59 C30.67 58.34 30.34 57.68 30 57 C25.87677606 56.63868666 25.87677606 56.63868666 22.1875 58.1875 Z M-89.9375 70.5625 C-92.54514305 74.02496643 -92.65341956 77.36590526 -92.41796875 81.59765625 C-91.57033442 86.46957322 -89.30671922 89.06662913 -85.375 91.875 C-80.20869847 93.59710051 -74.96106489 94.36915294 -69.87109375 92.015625 C-66.54080881 89.76298968 -64.4807247 87.80261227 -63 84 C-62.43188906 79.46249055 -62.46640852 75.31993681 -64.1875 71.0625 C-68.0590879 66.65689997 -72.01554479 65.38728305 -77.7265625 64.94140625 C-82.90237204 65.0748034 -86.14066342 67.25036597 -89.9375 70.5625 Z M-52 70 C-54.75263017 74.47302402 -55.49025976 78.00151851 -54.57421875 83.07421875 C-53.62063636 86.27228759 -52.15885202 88.48133931 -50 91 C-44.77823375 93.58871943 -39.71463227 93.67132244 -34 93 C-30.11075842 91.1942807 -28.48834969 89.73252453 -26.125 86.1875 C-24.40319966 81.30906571 -24.4286482 77.7140554 -26.0625 72.8125 C-28.49677135 69.2788803 -30.97392559 67.33951635 -35 66 C-41.72067406 64.94281532 -46.66385076 65.75286081 -52 70 Z M-120 75 C-121.56918492 76.56918492 -121.28258943 78.14085159 -121.375 80.3125 C-121.32425743 83.85320391 -121.23889097 84.70319607 -118.9375 87.5625 C-115.25456163 89.36478899 -113.05704375 89.57957768 -109 89 C-106.0098357 87.59121904 -106.0098357 87.59121904 -104 85 C-102.86853545 81.11059061 -102.61375459 78.96561354 -104.125 75.1875 C-106.29039915 72.66120099 -107.81450401 71.8760114 -111 71 C-115.01389555 71 -116.79373524 72.69985354 -120 75 Z M-14 75 C-15.19754817 78.59264452 -15.33094958 81.22717474 -15 85 C-13.13291495 87.36497439 -11.67938569 88.66030715 -9 90 C-3.12435706 90.59420843 -3.12435706 90.59420843 2 88 C4.77041398 83.84437903 4.70476018 81.93332128 4 77 C1.79259319 74.03141843 0.51402627 73.17134209 -3 72 C-7.68793541 71.65905924 -10.63133297 71.50176886 -14 75 Z M-101.75 98.5 C-103.35875 99.2425 -103.35875 99.2425 -105 100 C-105 100.66 -105 101.32 -105 102 C-105.99 102.33 -106.98 102.66 -108 103 C-110.0058138 106.69492016 -110.50936649 109.8401737 -110 114 C-107.18500771 119.21294868 -103.94385488 122.99641311 -98.25 124.9375 C-93.73917282 125.02424668 -90.03281389 124.01640694 -86 122 C-82.56881365 118.48303399 -80.83965078 115.69203349 -80.5625 110.8125 C-80.62285823 106.1347373 -81.97578695 103.68297291 -85.21484375 100.375 C-90.0945321 96.61646543 -96.21581825 95.94576227 -101.75 98.5 Z M-33.375 103.25 C-35.43382984 106.73417358 -36 108.93758079 -36 113 C-34.47983799 117.61144117 -32.41178336 121.65624009 -28 124 C-24.22219783 125.48413657 -19.98261078 125.64699453 -16 125 C-12.29212374 123.37373848 -8.99280386 121.58005059 -6.8046875 118.09765625 C-5.37126854 114.36102527 -5.25396677 110.92162598 -6 107 C-8.3222523 102.61995117 -10.9872817 100.40864072 -15.5625 98.5625 C-22.65894859 97.40126296 -27.89096492 98.05459835 -33.375 103.25 Z M11 106 C9.57958179 108.84083641 9.68547728 110.85477278 10 114 C12.07541048 116.95346876 13.47602618 117.84392269 16.9375 118.875 C20.28663841 119.01169953 22.0834034 118.62033144 25 117 C27.25162602 114.24528606 27.25162602 114.24528606 26.9375 111.4375 C26.4734375 110.2309375 26.4734375 110.2309375 26 109 C24.34795544 108.29788106 22.68076231 107.63028587 21 107 C20.1875 104.875 20.1875 104.875 20 103 C15.70612989 103 14.41133516 103.60284556 11 106 Z M-139.9375 106.0625 C-141.6140629 109.11976176 -141.36528977 111.5906288 -141 115 C-140.08333333 117.08333333 -140.08333333 117.08333333 -138 118 C-133.63293092 118.38991688 -131.69486103 118.46324069 -128 116 C-126.91083846 112.62649951 -126.91083846 112.62649951 -127 109 C-128.3530128 106.39685006 -128.3530128 106.39685006 -131 105 C-134.46230815 104.57480426 -136.8347167 104.36097367 -139.9375 106.0625 Z M23 106 C23.66 106.66 24.32 107.32 25 108 C25 107.34 25 106.68 25 106 C24.34 106 23.68 106 23 106 Z M44 106 C43.34 107.98 42.68 109.96 42 112 C44.14788002 114.54563558 45.27916395 115.87986066 48.625 116.4375 C49.40875 116.293125 50.1925 116.14875 51 116 C53.36692966 113.15173402 53.36692966 113.15173402 52.625 109.8125 C52.41875 108.884375 52.2125 107.95625 52 107 C49.36 106.67 46.72 106.34 44 106 Z M-167 108 C-168.15317663 110.97903963 -168.0448029 111.86559131 -167 115 C-164.69 115.33 -162.38 115.66 -160 116 C-158.76603959 114.2857711 -158.76603959 114.2857711 -158 112 C-158.49154083 109.27102833 -158.49154083 109.27102833 -160 107 C-163.32658403 105.39036256 -163.80217502 105.86811668 -167 108 Z M-89.25 134.1875 C-91.45415774 137.72989637 -92.1878798 140.88230106 -92 145 C-90.81729815 149.17424181 -89.60233519 151.41272319 -86.5 154.4375 C-81.59304917 156.62810305 -77.29225385 156.78753777 -72 156 C-68.09136259 154.04568129 -65.01420844 151.92240591 -63 148 C-61.77387426 143.43312585 -61.36016018 139.45059895 -63.5 135.125 C-65.99254153 131.45849693 -68.71916248 130.19302029 -73 129 C-80.03068976 128.14377535 -84.09855434 129.17915005 -89.25 134.1875 Z M-51.875 134.1875 C-53.86312037 139.15780094 -54.65231158 143.11554434 -52.875 148.25 C-50.18309922 152.19812114 -47.54123411 154.4862553 -43 156 C-37.19884079 156.5687411 -32.56437011 155.67201011 -28 152 C-25.64052503 148.41115458 -24.97734779 145.13261057 -25.0625 140.875 C-26.73805008 135.73664642 -28.59535541 132.7803581 -33.375 130.125 C-40.24489757 127.99296282 -46.88711105 128.36829623 -51.875 134.1875 Z M-119 135 C-121.13272462 137.71437679 -120.99745956 139.04826833 -120.8125 142.5625 C-120.20761598 145.83736988 -120.20761598 145.83736988 -118.9375 147.875 C-115.8074598 149.6924427 -112.56052227 150.1318712 -109 150 C-106.00204165 148.66048669 -104.47220125 147.9444025 -103 145 C-102.50732943 140.64807662 -102.48247571 138.70017992 -105.125 135.125 C-110.21251377 131.36466373 -113.98573222 130.96072873 -119 135 Z M-12.5 134.625 C-14.35921047 137.56874992 -14.9288308 139.51270927 -15 143 C-13.39588152 146.52906067 -12.25840638 147.82772908 -9 150 C-3.43060649 150.61537569 -3.43060649 150.61537569 1.4375 148.375 C3.3861606 145.41303588 3.92895147 143.55242634 4 140 C2.43616066 135.6894214 2.43616066 135.6894214 -1 133 C-5.2837874 132.49553855 -8.8164016 132.23066104 -12.5 134.625 Z M-149.875 151.125 C-151.52854531 153.88090884 -151.39365568 155.85075452 -151 159 C-150.06402685 161.01951062 -150.06402685 161.01951062 -148 162 C-144.45786015 162.50007794 -144.45786015 162.50007794 -141 162 C-138.68717413 158.53076119 -138.57521414 157.07794425 -139 153 C-140 151 -140 151 -142 150 C-145.14924548 149.60634432 -147.11909116 149.47145469 -149.875 151.125 Z M24.1875 149.75 C22.09227381 150.82002039 22.09227381 150.82002039 21 152 C20.49929679 155.37357334 20.49929679 155.37357334 21 159 C23.04881284 161.63926358 23.04881284 161.63926358 26 163 C28.87756134 162.93148663 30.427277 162.3436338 32.875 160.875 C34.29366365 158.86409245 34.29366365 158.86409245 34.0625 155.5 C33.32127408 151.81755904 33.32127408 151.81755904 30.25 149.9375 C27.07859254 148.72028297 27.07859254 148.72028297 24.1875 149.75 Z M-68 168 C-68.15129568 172.31192698 -67.70478473 174.21466844 -64.8125 177.4375 C-61.50745856 179.27363413 -59.7271242 179.47580309 -56 179 C-52.65734795 177.79293121 -52.05295434 177.07943151 -50 174 C-50.13699289 170.23269564 -50.51710401 167.75331775 -52.5625 164.5625 C-55.40047002 162.74328845 -57.65820223 162.36562934 -61.0234375 162.5546875 C-64.59330089 163.35896502 -66.03334166 165.01829219 -68 168 Z M-103 171 C-105.06196218 173.2140989 -105.06196218 173.2140989 -106 176 C-105.3444594 179.05918947 -104.37490824 180.5983126 -102.25 182.875 C-99.1054236 184.4472882 -97.32144655 183.98936706 -94 183 C-91.63949632 181.37206643 -91.09638229 180.28914686 -90.1875 177.5625 C-89.9662514 174.53876916 -90.11355326 173.37856329 -92 171 C-96.2783643 168.90835523 -98.88780623 168.44377144 -103 171 Z M-25 172 C-26.11517424 175.17395744 -26.16130892 176.58249456 -24.9375 179.75 C-23.13636563 182.22185864 -23.13636563 182.22185864 -20.125 183 C-16.33892481 183 -14.76670352 182.60395625 -12 180 C-11.25 176.5 -11.25 176.5 -12 173 C-13.46041766 170.88329643 -13.46041766 170.88329643 -16 170 C-21.04105568 169.36853591 -21.04105568 169.36853591 -25 172 Z M-9.9375 194.125 C-11.25164183 196.08488758 -11.25164183 196.08488758 -11 199.0625 C-10.2776608 202.13720284 -10.2776608 202.13720284 -7.75 203.5625 C-4.90164797 204.28581414 -4.90164797 204.28581414 -2.1875 202.625 C-1.465625 202.08875 -0.74375 201.5525 0 201 C-0.18464366 196.65815798 -0.18464366 196.65815798 -2 193 C-6.15199221 192.63703121 -6.15199221 192.63703121 -9.9375 194.125 Z M-115 194 C-115.66 195.65 -116.32 197.3 -117 199 C-115.33454661 201.16641665 -115.33454661 201.16641665 -113 203 C-109.6678502 202.80801478 -109.6678502 202.80801478 -107 201 C-106.95919217 199.00041636 -106.95745644 196.99954746 -107 195 C-109.70879335 193.64560332 -112.00933268 193.93498549 -115 194 Z M-64 201.1875 C-65.29005448 203.9676527 -65.29005448 203.9676527 -64.25 206.75 C-63.18887078 208.90270293 -63.18887078 208.90270293 -62 210 C-58.54178598 210.25003964 -58.54178598 210.25003964 -55 210 C-52.70172688 208.12061828 -52.70172688 208.12061828 -52.6875 205.0625 C-52.77302425 202.07739953 -52.77302425 202.07739953 -54.125 200.125 C-57.92821856 197.84306886 -60.99613305 197.90202053 -64 201.1875 Z M10 212 C8 213 6 214 4 215 C4 215.66 4 216.32 4 217 C8.50066475 215.93204565 12.7494534 214.85961414 17 213 C17 212.01 17 211.02 17 210 C13.7522446 210 12.78619507 210.4874941 10 212 Z M0 217 C-0.66 217.66 -1.32 218.32 -2 219 C-0.02 218.67 1.96 218.34 4 218 C2.10820797 217.3185177 2.10820797 217.3185177 0 217 Z " fill="#0055BF" transform="translate(252,59)"/>
<path d="M0 0 C0.66 0.33 1.32 0.66 2 1 C1.23429687 1.84304687 1.23429687 1.84304687 0.453125 2.703125 C-16.48640125 22.2856979 -29.23179191 47.75289039 -30 74 C-30.02578125 74.72251953 -30.0515625 75.44503906 -30.078125 76.18945312 C-31.2476829 112.88433214 -20.3506011 144.5277291 4.76953125 171.63671875 C5.87361328 172.80654297 5.87361328 172.80654297 7 174 C7.68449219 174.74894531 8.36898437 175.49789062 9.07421875 176.26953125 C27.96470086 196.20754471 58.20727585 212.44871944 85.56640625 215.6015625 C89 216 89 216 90 217 C100.50737594 218.97093623 110.9658204 219.36606145 121.625 219.3125 C122.36434784 219.31100952 123.10369568 219.30951904 123.865448 219.3079834 C136.12096305 219.26377123 147.96365934 218.43561364 160 216 C161.10069824 215.79117188 161.10069824 215.79117188 162.22363281 215.578125 C188.85904563 210.44816587 218.30993014 197.19463406 237.4375 177.5625 C238.283125 176.716875 239.12875 175.87125 240 175 C240.66 175 241.32 175 242 175 C242.33451172 174.18208984 242.33451172 174.18208984 242.67578125 173.34765625 C244.4075513 170.27746805 246.75507922 167.95066166 249.1875 165.4375 C254.26254094 160.02736936 258.32692715 154.46835799 262 148 C262.32597168 147.43941895 262.65194336 146.87883789 262.98779297 146.30126953 C272.30467105 130.19256676 276.21228749 114.42022759 278 96 C278.10570312 94.92234375 278.21140625 93.8446875 278.3203125 92.734375 C279.24793233 71.58464294 272.52374012 49.26361475 259 33 C262 33 262 33 263.796875 34.3984375 C277 47.76 277 47.76 277 53 C277.66 53 278.32 53 279 53 C295.71441637 85.30900832 299.95785756 115.27629288 289.83642578 150.39941406 C284.38751191 167.3409875 274.22588722 181.95019126 262.9375 195.5 C262.47230957 196.05864746 262.00711914 196.61729492 261.52783203 197.19287109 C260.39936419 198.50431103 259.20517894 199.75868695 258 201 C257.34 201 256.68 201 256 201 C255.75765625 201.57492187 255.5153125 202.14984375 255.265625 202.7421875 C243.53428077 223.67032628 207.39975266 238.13647433 185.8125 244.75 C182.88969756 245.56667536 179.95168057 246.29561459 177 247 C175.81978271 247.29414795 175.81978271 247.29414795 174.61572266 247.59423828 C146.26599319 254.35945177 113.29876987 253.49346901 85 247 C84.29214355 246.85046875 83.58428711 246.7009375 82.85498047 246.546875 C60.64155457 241.82317331 37.7538266 231.12574143 20 217 C19.26136719 216.43925781 18.52273437 215.87851562 17.76171875 215.30078125 C15.48226426 213.56386122 13.23745798 211.79069878 11 210 C9.52466797 208.82244141 9.52466797 208.82244141 8.01953125 207.62109375 C2.10067315 202.83632174 -3.22289644 197.94680588 -8 192 C-8.92336851 190.90921509 -9.84796047 189.81946526 -10.7734375 188.73046875 C-18.05009395 180.04891329 -23.87272031 171.09153819 -29 161 C-29.56460938 159.89914063 -30.12921875 158.79828125 -30.7109375 157.6640625 C-46.25734266 125.7031788 -48.20846342 88.65616475 -36.75830078 55.16357422 C-29.2702911 33.79887951 -16.5331994 15.36155535 0 0 Z " fill="#0052BE" transform="translate(82,91)"/>
<path d="M0 0 C2.37442417 2.16411803 3.7168798 4.18889175 5.125 7.0625 C17.32475378 29.56264469 43.54029499 43.49572291 67.15771484 50.58886719 C71.42087737 51.82223496 75.67531825 52.99989182 80 54 C80.84159668 54.19795166 81.68319336 54.39590332 82.55029297 54.59985352 C92.72515219 56.64658297 103.04705764 56.26014368 113.375 56.1875 C115.3505848 56.18065307 117.3261708 56.17414373 119.30175781 56.16796875 C132.21971143 56.10978338 145.10746931 55.8636145 158 55 C155.76710506 57.23289494 154.71300363 57.50915214 151.7109375 58.25390625 C150.42123047 58.57584961 150.42123047 58.57584961 149.10546875 58.90429688 C147.75388672 59.23010742 147.75388672 59.23010742 146.375 59.5625 C145.49714844 59.78357422 144.61929688 60.00464844 143.71484375 60.23242188 C133.25107381 62.8056075 123.23045942 63.20407498 112.5 63.1875 C111.78346252 63.18689575 111.06692505 63.1862915 110.32867432 63.18566895 C78.31982567 63.11217398 41.92824108 53.72757352 18.35449219 30.46337891 C14.60060339 26.4077175 11.82398504 21.71953664 9 17 C7.90444865 15.36917927 6.80098599 13.74362842 5.6875 12.125 C0 3.58600136 0 3.58600136 0 0 Z " fill="#005DCF" transform="translate(91,226)"/>
<path d="M0 0 C0.66 0.33 1.32 0.66 2 1 C1.23429687 1.84304687 1.23429687 1.84304687 0.453125 2.703125 C-16.48640125 22.2856979 -29.23179191 47.75289039 -30 74 C-30.02578125 74.72251953 -30.0515625 75.44503906 -30.078125 76.18945312 C-31.2476829 112.88433214 -20.3506011 144.5277291 4.76953125 171.63671875 C5.87361328 172.80654297 5.87361328 172.80654297 7 174 C7.68449219 174.74894531 8.36898437 175.49789062 9.07421875 176.26953125 C27.96470086 196.20754471 58.20727585 212.44871944 85.56640625 215.6015625 C89 216 89 216 90 217 C91.67884238 217.3931648 93.36850045 217.74085452 95.0625 218.0625 C95.98160156 218.23910156 96.90070313 218.41570312 97.84765625 218.59765625 C98.55792969 218.73042969 99.26820313 218.86320313 100 219 C100 219.33 100 219.66 100 220 C94.26667607 220.16749036 89.20272981 219.67260984 83.625 218.375 C82.85043457 218.19678711 82.07586914 218.01857422 81.27783203 217.83496094 C55.28360259 211.63161363 30.22748606 199.80382959 11 181 C9.67338921 179.88776548 8.34045382 178.78301146 7 177.6875 C-16.61611636 156.90916545 -31.14330752 124.32192812 -33.18457031 93.18457031 C-34.21078636 70.82191994 -29.94425195 50.45511532 -21 30 C-22.98 30.99 -22.98 30.99 -25 32 C-23.40773211 27.11955759 -20.62151471 23.42160095 -17.5625 19.375 C-17.03624023 18.67439453 -16.50998047 17.97378906 -15.96777344 17.25195312 C-11.1386714 10.94961458 -5.81325934 5.40129608 0 0 Z " fill="#003389" transform="translate(82,91)"/>
<path d="M0 0 C0.33 0.66 0.66 1.32 1 2 C-0.14285153 4.59409156 -1.34665171 7.09863429 -2.625 9.625 C-6.66796137 17.89019778 -9.5718977 26.12519196 -12 35 C-12.35320313 36.26714844 -12.70640625 37.53429687 -13.0703125 38.83984375 C-15.23639487 47.74222781 -15.15683574 56.82717158 -15.125 65.9375 C-15.12886719 67.04029297 -15.13273437 68.14308594 -15.13671875 69.27929688 C-15.12850542 76.24009623 -14.76174304 83.08097861 -14 90 C-13.34 90 -12.68 90 -12 90 C-11.52263371 92.65961216 -11.05385343 95.29749666 -10.84716797 97.99365234 C-10.38938094 103.88348958 -8.83385261 108.76123399 -6.5625 114.1875 C-5.93755841 115.72215039 -5.31383365 117.25729693 -4.69140625 118.79296875 C-4.3989502 119.50888184 -4.10649414 120.22479492 -3.80517578 120.96240234 C-2.76006116 123.60719514 -1.86010676 126.29001538 -1 129 C-0.34 129 0.32 129 1 129 C1.47566406 130.07314453 1.47566406 130.07314453 1.9609375 131.16796875 C7.86127446 143.76730707 16.50630545 153.91076004 26 164 C26.57492188 164.639375 27.14984375 165.27875 27.7421875 165.9375 C47.47285123 186.98354131 74.37419243 199.3376591 101 209 C101 209.33 101 209.66 101 210 C81.54586083 207.76103258 61.07412739 196.13219925 46 184 C44.89591797 183.16082031 44.89591797 183.16082031 43.76953125 182.3046875 C41.48670424 180.56731473 39.23976533 178.79254541 37 177 C35.52466797 175.82244141 35.52466797 175.82244141 34.01953125 174.62109375 C28.10067315 169.83632174 22.77710356 164.94680588 18 159 C17.07663149 157.90921509 16.15203953 156.81946526 15.2265625 155.73046875 C7.94990605 147.04891329 2.12727969 138.09153819 -3 128 C-3.56460938 126.89914063 -4.12921875 125.79828125 -4.7109375 124.6640625 C-20.25078274 92.71666493 -22.21162906 55.67244718 -10.77148438 22.18994141 C-7.95599354 14.19786774 -4.73444708 7.03403566 0 0 Z " fill="#002C76" transform="translate(56,124)"/>
<path d="M0 0 C1 3 1 3 -0.51953125 6.5546875 C-1.26942053 8.00235997 -2.03478421 9.44208421 -2.8125 10.875 C-3.2154126 11.62644287 -3.6183252 12.37788574 -4.03344727 13.15209961 C-6.83170652 18.22572466 -9.90995892 22.96713104 -13.4375 27.5625 C-14.07425659 28.39273682 -14.07425659 28.39273682 -14.72387695 29.23974609 C-15.76153385 30.5385449 -16.87445381 31.77658022 -18 33 C-18.66 33 -19.32 33 -20 33 C-20.22945312 33.56332031 -20.45890625 34.12664062 -20.6953125 34.70703125 C-25.52312138 43.19183309 -36.89871842 50.61648383 -45 56 C-45.66 56 -46.32 56 -47 56 C-47 56.66 -47 57.32 -47 58 C-48.33333333 58.66666667 -49.66666667 59.33333333 -51 60 C-52.5159375 60.804375 -52.5159375 60.804375 -54.0625 61.625 C-57 63 -57 63 -60 63 C-60 63.66 -60 64.32 -60 65 C-59.32453125 64.69964844 -58.6490625 64.39929688 -57.953125 64.08984375 C-57.06109375 63.70957031 -56.1690625 63.32929688 -55.25 62.9375 C-53.92742187 62.36322266 -53.92742187 62.36322266 -52.578125 61.77734375 C-49.84743691 60.95399992 -48.63098653 61.0226008 -46 62 C-56.1686002 67.71983761 -67.01494796 71.20461913 -78.671875 71.625 C-79.48455338 71.66050461 -80.29723175 71.69600922 -81.13453674 71.73258972 C-90.13079639 72.09694852 -99.13043516 72.25669454 -108.13354492 72.29516602 C-110.00113485 72.30671141 -111.86869114 72.32720345 -113.73608398 72.35668945 C-140.17220016 72.77029533 -163.76767296 66.47075866 -187 54 C-185.68 53.01 -184.36 52.02 -183 51 C-183 52.32 -183 53.64 -183 55 C-182.31292969 55.10441406 -181.62585938 55.20882812 -180.91796875 55.31640625 C-177.47075357 56.12398678 -174.53083616 57.46348041 -171.3125 58.9375 C-165.63855972 61.47209009 -160.16696622 63.17584322 -154 64 C-154 64.66 -154 65.32 -154 66 C-153.00484375 66.13277344 -152.0096875 66.26554687 -150.984375 66.40234375 C-148.41710531 66.76589068 -145.93512434 67.22242533 -143.390625 67.75390625 C-132.09809673 70.03572981 -120.97660937 70.27900784 -109.5 70.25 C-108.31307556 70.24856491 -108.31307556 70.24856491 -107.10217285 70.24710083 C-104.82838063 70.24070715 -102.5549456 70.22464528 -100.28125 70.203125 C-99.59138 70.19874924 -98.90151001 70.19437347 -98.19073486 70.18986511 C-95.19000105 70.14539493 -92.87084046 69.95694682 -90 69 C-88.29377207 68.84895687 -86.58484293 68.72729829 -84.875 68.625 C-79.50101604 68.16075531 -75.00374706 66.95248898 -70 65 C-68.32744141 64.35224609 -68.32744141 64.35224609 -66.62109375 63.69140625 C-64.31822063 62.79907451 -62.01849414 61.89856083 -59.72265625 60.98828125 C-57 60 -57 60 -55 60 C-55 59.34 -55 58.68 -55 58 C-54.16082031 57.65001953 -54.16082031 57.65001953 -53.3046875 57.29296875 C-44.43811597 53.25882126 -36.02041379 47.16322643 -29.21484375 40.1640625 C-28 39 -28 39 -26 39 C-26.33 38.01 -26.66 37.02 -27 36 C-26.28328125 35.79632813 -25.5665625 35.59265625 -24.828125 35.3828125 C-21.17765334 33.59791337 -19.15659226 31.0407245 -16.75 27.875 C-16.27763916 27.26479004 -15.80527832 26.65458008 -15.31860352 26.02587891 C-9.24168876 17.95798705 -4.43624179 9.05636926 0 0 Z M-64 65 C-64.66 65.66 -65.32 66.32 -66 67 C-64.02 66.67 -62.04 66.34 -60 66 C-61.89179203 65.3185177 -61.89179203 65.3185177 -64 65 Z " fill="#003CA2" transform="translate(316,211)"/>
<path d="M0 0 C2.36674118 2.11600116 3.26708401 3.74635001 3.8125 6.875 C4.01882352 10.9250542 3.09616999 13.57465635 0.75 16.9375 C-2.18208229 19.38090191 -3.93822321 19.90409534 -7.75 20.3125 C-12.36902872 19.81760407 -14.71561207 18.36606807 -18.0625 15.25 C-19.82015494 11.82719828 -19.87866313 8.6523276 -19.25 4.9375 C-17.30044571 0.72646274 -16.11318026 -0.70153371 -11.8125 -2.5 C-6.55542853 -3.33006392 -4.50808015 -2.86089702 0 0 Z " fill="#0051C1" transform="translate(80.25,51.0625)"/>
<path d="M0 0 C3.58552881 1.63687185 4.79315055 2.68972583 7 6 C7.265625 8.12109375 7.265625 8.12109375 7.25 10.4375 C7.25515625 11.19933594 7.2603125 11.96117188 7.265625 12.74609375 C6.96793844 15.27205175 6.34975476 16.8514108 5 19 C0.88581801 21.8407447 -2.28794469 22.49963257 -7.1015625 21.6328125 C-10.43323753 20.52225416 -11.98297508 18.8116105 -14 16 C-14.96685978 12.39039015 -15.22094728 9.95007329 -14.375 6.3125 C-10.84384455 0.37373856 -6.56347433 -1.11605636 0 0 Z " fill="#004EBE" transform="translate(34,101)"/>
<path d="M0 0 C3.21103317 2.32287506 4.64866839 4.34125322 6.5 7.8125 C7.18730103 12.19404406 6.33980618 15.24638868 4 19 C0.65999341 21.56326087 -1.9434498 22.24092558 -6.0625 22 C-10.2549695 21.28381999 -12.37874107 19.35848801 -15 16 C-15 15.34 -15 14.68 -15 14 C-15.66 13.67 -16.32 13.34 -17 13 C-16.13803959 8.51780586 -14.37280876 4.5840101 -11.375 1.125 C-7.6156233 -0.65575739 -4.06991058 -0.77037593 0 0 Z " fill="#006FD4" transform="translate(307,49)"/>
<path d="M0 0 C-1.17433594 0.46148437 -2.34867187 0.92296875 -3.55859375 1.3984375 C-18.65730247 7.46003207 -32.86050102 14.19645092 -44.60546875 25.67578125 C-47 28 -47 28 -49.90625 30.3046875 C-53.61279305 33.35876571 -56.42678663 36.99533595 -59.3125 40.8125 C-59.87718994 41.55806152 -60.44187988 42.30362305 -61.02368164 43.07177734 C-77.13485286 64.77459387 -85.43716893 88.94800242 -86.5625 115.9375 C-86.60568359 116.90751953 -86.64886719 117.87753906 -86.69335938 118.87695312 C-86.79862093 121.25118601 -86.90075707 123.62550921 -87 126 C-92.99043799 117.01434301 -87.99900329 99.10816758 -86 89 C-82.11392649 72.87578905 -74.67617974 58.13760004 -64.98046875 44.76953125 C-62.98407237 42.05768784 -62.98407237 42.05768784 -61.375 39.28125 C-59.6161317 36.36312759 -57.46623663 34.35662612 -55 32 C-54.46890625 31.43667969 -53.9378125 30.87335938 -53.390625 30.29296875 C-43.16557333 19.56540385 -16.11899412 -4.99649492 0 0 Z " fill="#013384" transform="translate(148,53)"/>
<path d="M0 0 C3.38216497 2.16805447 3.898503 3.594012 4.875 7.5 C5.05714286 12.6 5.05714286 12.6 3 15 C-0.35130026 16.83373033 -2.83568562 18.02707708 -6.6875 17.9375 C-9.60933927 16.75297057 -11.06466882 15.48828294 -13 13 C-14.35729962 9.56150763 -14.11499231 8.29323039 -12.75 4.8125 C-9.56322069 -0.3091096 -5.68253042 -0.90508045 0 0 Z " fill="#005ECC" transform="translate(199,7)"/>
<path d="M0 0 C0.66 0.33 1.32 0.66 2 1 C1.23429687 1.84304687 1.23429687 1.84304687 0.453125 2.703125 C-10.70755771 15.60519083 -19.6957556 30.76901213 -25 47 C-25.38671875 48.14210937 -25.7734375 49.28421875 -26.171875 50.4609375 C-29.23318888 60.86496802 -29.78442033 71.34764299 -30.31738281 82.14892578 C-30.38022461 83.36306152 -30.44306641 84.57719727 -30.5078125 85.828125 C-30.57959717 87.4663623 -30.57959717 87.4663623 -30.65283203 89.13769531 C-30.98821723 91.90285433 -31.57866446 93.63277819 -33 96 C-33.79597597 72.35339091 -30.49619727 51.71739028 -21 30 C-22.98 30.99 -22.98 30.99 -25 32 C-23.40773211 27.11955759 -20.62151471 23.42160095 -17.5625 19.375 C-17.03624023 18.67439453 -16.50998047 17.97378906 -15.96777344 17.25195312 C-11.1386714 10.94961458 -5.81325934 5.40129608 0 0 Z " fill="#02398D" transform="translate(82,91)"/>
<path d="M0 0 C2.33443483 1.78154237 3.59746623 3.22176804 4.9375 5.8125 C5.04381863 9.53365211 3.87730763 11.83204337 2 15 C-2.02766494 16.97583563 -3.97168013 17.3361815 -8.25 15.9375 C-11.25947634 13.81718712 -12.6212724 12.4062682 -14 9 C-13.81324726 5.17156888 -12.59435342 2.79391906 -10 0 C-6.19426871 -1.2685771 -3.89430952 -0.88817586 0 0 Z " fill="#0057C8" transform="translate(132,19)"/>
<path d="M0 0 C2.32893759 1.82538352 3.65908902 3.24512569 4.875 5.9375 C5.04885552 8.806116 4.35779132 10.47838754 3 13 C0.52275835 15.66074103 -0.84537493 15.98067187 -4.5 16.4375 C-8 16 -8 16 -10.375 14.375 C-12.38506043 11.43721938 -12.92733979 9.5603504 -13 6 C-11.76356597 3.13667909 -10.66847461 1.50711867 -8.1875 -0.375 C-5.08685996 -1.26089715 -3.08383471 -0.89945179 0 0 Z " fill="#0064D0" transform="translate(256,19)"/>
<path d="M0 0 C2.25709032 3.38563549 2.69236007 6.27225336 3.3125 10.1875 C4.35273489 16.21738333 5.73921457 22.03312659 7.5625 27.875 C7.77237549 28.55844482 7.98225098 29.24188965 8.19848633 29.94604492 C9.14153806 32.87803783 9.79166831 34.79166831 12 37 C12.12632813 37.71285156 12.25265625 38.42570312 12.3828125 39.16015625 C13.20896817 42.96151812 14.9730373 46.08638428 16.875 49.4375 C17.46958008 50.48768311 17.46958008 50.48768311 18.07617188 51.55908203 C22.37270035 58.93811988 27.50308653 65.48877512 33 72 C33.763125 72.928125 34.52625 73.85625 35.3125 74.8125 C39.97663346 80.2761992 44.93984785 84.40966495 50.91015625 88.40625 C51.94462891 89.19515625 51.94462891 89.19515625 53 90 C53 90.66 53 91.32 53 92 C54.04220703 92.36738281 54.04220703 92.36738281 55.10546875 92.7421875 C58.46600214 94.20250025 61.28574867 96.06281778 64.3125 98.125 C65.38113281 98.84945312 66.44976562 99.57390625 67.55078125 100.3203125 C68.35902344 100.87460937 69.16726562 101.42890625 70 102 C69.01 102.495 69.01 102.495 68 103 C43.12937692 90.64097871 24.59166639 69.27143631 12 45 C11.4328125 43.91976562 10.865625 42.83953125 10.28125 41.7265625 C3.94553843 28.89351406 -0.24741885 14.35029307 0 0 Z " fill="#012E7E" transform="translate(60,180)"/>
<path d="M0 0 C1.5625 2.8125 1.5625 2.8125 2 6 C-0.09302326 11.54651163 -0.09302326 11.54651163 -3 13 C-7.05263598 13.54035146 -8.53730231 13.34199395 -11.875 10.875 C-14 8 -14 8 -14.5625 4.9375 C-13.87380287 1.34097053 -12.90567935 0.17925951 -10 -2 C-6.0845431 -3.95772845 -3.4434871 -2.32061087 0 0 Z " fill="#004EBF" transform="translate(23,169)"/>
<path d="M0 0 C1 3 1 3 -0.51953125 6.5546875 C-1.26942053 8.00235997 -2.03478421 9.44208421 -2.8125 10.875 C-3.2154126 11.62644287 -3.6183252 12.37788574 -4.03344727 13.15209961 C-6.83170652 18.22572466 -9.90995892 22.96713104 -13.4375 27.5625 C-13.86200439 28.11599121 -14.28650879 28.66948242 -14.72387695 29.23974609 C-15.76153385 30.5385449 -16.87445381 31.77658022 -18 33 C-18.66 33 -19.32 33 -20 33 C-20.22945313 33.56332031 -20.45890625 34.12664062 -20.6953125 34.70703125 C-25.52312138 43.19183309 -36.89871842 50.61648383 -45 56 C-45.66 56 -46.32 56 -47 56 C-47 56.66 -47 57.32 -47 58 C-48.33333333 58.66666667 -49.66666667 59.33333333 -51 60 C-52.010625 60.53625 -53.02125 61.0725 -54.0625 61.625 C-57 63 -57 63 -60 63 C-60 63.66 -60 64.32 -60 65 C-61.60064843 65.53154742 -63.20568874 66.04988353 -64.8125 66.5625 C-65.70582031 66.85253906 -66.59914062 67.14257812 -67.51953125 67.44140625 C-70 68 -70 68 -73 67 C-67.10825719 64.25609141 -61.20477864 61.93624298 -55 60 C-55 59.34 -55 58.68 -55 58 C-54.44054687 57.76667969 -53.88109375 57.53335938 -53.3046875 57.29296875 C-44.43811597 53.25882126 -36.02041379 47.16322643 -29.21484375 40.1640625 C-28 39 -28 39 -26 39 C-26.33 38.01 -26.66 37.02 -27 36 C-26.28328125 35.79632813 -25.5665625 35.59265625 -24.828125 35.3828125 C-21.17765334 33.59791337 -19.15659226 31.0407245 -16.75 27.875 C-16.27763916 27.26479004 -15.80527832 26.65458008 -15.31860352 26.02587891 C-9.24168876 17.95798705 -4.43624179 9.05636926 0 0 Z " fill="#01368A" transform="translate(316,211)"/>
<path d="M0 0 C0.33 0.66 0.66 1.32 1 2 C-0.14285153 4.59409156 -1.34665171 7.09863429 -2.625 9.625 C-6.66796137 17.89019778 -9.5718977 26.12519196 -12 35 C-12.35320313 36.26714844 -12.70640625 37.53429687 -13.0703125 38.83984375 C-15.23639487 47.74222781 -15.15683574 56.82717158 -15.125 65.9375 C-15.12886719 67.04029297 -15.13273437 68.14308594 -15.13671875 69.27929688 C-15.12850542 76.24009623 -14.76174304 83.08097861 -14 90 C-13.34 90 -12.68 90 -12 90 C-11.3125 92.8125 -11.3125 92.8125 -11 96 C-12.48046875 97.69921875 -12.48046875 97.69921875 -14 99 C-20.8500539 67.07616389 -19.86620102 31.85374097 -2.1875 3.25 C-1.1046875 1.64125 -1.1046875 1.64125 0 0 Z " fill="#023281" transform="translate(56,124)"/>
<path d="M0 0 C6.89301208 0.56500099 11.35365854 3.06680416 15.8125 8.3125 C17.58118133 13.61854399 17.6702347 18.45407481 15.3125 23.5625 C11.07766073 28.22082319 6.77197826 31.53587441 0.3125 31.9375 C-5.77359684 31.56896472 -10.15994853 28.53013442 -14.1875 24.125 C-15.93372784 19.2137342 -16.15511445 14.15291662 -14.4609375 9.1796875 C-12.88435022 6.11623742 -11.49617281 4.47385169 -8.4375 2.875 C-7.32375 2.5965625 -7.32375 2.5965625 -6.1875 2.3125 C-6.60902344 2.7971875 -7.03054687 3.281875 -7.46484375 3.78125 C-11.49997945 8.7183572 -13.1875 11.89271683 -13.1875 18.3125 C-12.65530909 22.13897392 -12.65530909 22.13897392 -11.1875 25.3125 C-9.28581644 26.76469377 -9.28581644 26.76469377 -7.1875 27.3125 C-6.5275 27.6425 -5.8675 27.9725 -5.1875 28.3125 C0.06800671 28.83633318 4.47716186 28.93247842 9.3125 26.6875 C12.96060196 23.22180314 14.57493654 20.25260161 15.1875 15.25 C14.76262389 11.92180379 13.65561964 10.07717946 11.8125 7.3125 C11.8125 6.6525 11.8125 5.9925 11.8125 5.3125 C6.16449888 3.4707605 0.72742272 2.76474761 -5.1875 2.3125 C-3.1875 0.3125 -3.1875 0.3125 0 0 Z " fill="#003385" transform="translate(174.1875,185.6875)"/>
<path d="M0 0 C0.66 0.66 1.32 1.32 2 2 C0.75283203 2.19916016 0.75283203 2.19916016 -0.51953125 2.40234375 C-1.60621094 2.57894531 -2.69289062 2.75554687 -3.8125 2.9375 C-4.89144531 3.11152344 -5.97039062 3.28554687 -7.08203125 3.46484375 C-10.04933356 3.93871921 -10.04933356 3.93871921 -13 5 C-15.40904572 10.07620348 -16.89011525 15.58166962 -15 21 C-12.53141011 24.87921269 -10.47534356 26.85514467 -6 28 C-0.6826345 28.48339686 2.37508427 27.58134832 7 25 C7.66 25 8.32 25 9 25 C10.86301445 18.64383304 11.70243542 14.33085192 8.5625 8.1875 C7.18412248 5.89710802 7.18412248 5.89710802 5 5 C5 4.34 5 3.68 5 3 C8.86624652 4.51888256 10.90549839 6.40942582 13 10 C13.70841354 14.66307371 13.34314279 18.78756214 12.0625 23.3125 C8.28808188 28.23068118 3.41001587 30.67321819 -2.6875 31.5 C-9.63313787 30.45160183 -12.96563375 27.41757754 -17 22 C-18.97551003 18.04897993 -18.69196228 13.142582 -17.3515625 8.9921875 C-13.76310009 1.90727454 -7.86224167 -0.92496961 0 0 Z " fill="#003A92" transform="translate(215,186)"/>
<path d="M0 0 C4.69528521 2.78044823 8.92684527 5.64844684 10.5078125 11.125 C11.34319672 15.91021058 11.09313341 19.41573663 8.3359375 23.48046875 C5.16993869 26.9760784 1.53250656 29.53021744 -3.140625 30.46484375 C-8.04205599 30.68374261 -11.90365369 29.50321376 -16.08984375 27.0546875 C-19.06497799 24.28240333 -20.88779917 21.68399569 -21.39453125 17.59765625 C-21.40147815 15.3920158 -21.31365327 13.24802081 -21.08984375 11.0546875 C-20.75984375 11.0546875 -20.42984375 11.0546875 -20.08984375 11.0546875 C-20.00347656 11.63476562 -19.91710937 12.21484375 -19.828125 12.8125 C-18.78135276 18.63216954 -17.55253983 22.07706708 -13.08984375 26.0546875 C-8.73783175 28.27820455 -5.01141834 28.33783381 -0.33984375 27.0546875 C2.77557016 25.81713102 4.05786836 24.90337266 6.47265625 22.4296875 C8.31106897 18.11341415 8.85174716 14.67178679 7.91015625 10.0546875 C6.05924018 6.19724737 3.52512142 4.32155918 -0.40234375 2.6171875 C-5.87014383 1.7831163 -10.12370626 1.74392918 -14.90234375 4.9296875 C-15.62421875 5.6309375 -16.34609375 6.3321875 -17.08984375 7.0546875 C-17.68796875 7.6321875 -18.28609375 8.2096875 -18.90234375 8.8046875 C-19.49015625 9.4234375 -19.49015625 9.4234375 -20.08984375 10.0546875 C-18.48894928 4.81539651 -15.64611732 2.75886988 -11.21484375 -0.1953125 C-7.29000655 -1.58054916 -3.84701857 -1.74014672 0 0 Z " fill="#003386" transform="translate(162.08984375,154.9453125)"/>
<path d="M0 0 C0.99 0.495 0.99 0.495 2 1 C-15.51291408 18.00327901 -38.47906435 28.11835403 -61.9375 33.875 C-62.80125244 34.09043457 -63.66500488 34.30586914 -64.55493164 34.52783203 C-70.16394322 35.83190156 -75.24295928 36.19751704 -81 36 C-81 35.67 -81 35.34 -81 35 C-79.78828125 34.78085937 -78.5765625 34.56171875 -77.328125 34.3359375 C-49.66026133 29.1720875 -20.53929061 20.4041637 0 0 Z " fill="#01307D" transform="translate(313,263)"/>
<path d="M0 0 C0.33 0 0.66 0 1 0 C1.99037025 26.59327536 -4.02135636 52.29563844 -21.23828125 73.14453125 C-23 75 -23 75 -26 77 C-24.58152917 73.94959913 -22.87822455 71.38486515 -20.875 68.6875 C-6.28561251 47.92801738 -1.05724555 25.04578253 0 0 Z " fill="#013E90" transform="translate(336,166)"/>
<path d="M0 0 C1.09054688 0.09087891 1.09054688 0.09087891 2.203125 0.18359375 C4.33319035 0.3610992 6.46341258 0.53672766 8.59375 0.7109375 C10.69915519 0.88960721 12.8036519 1.07993312 14.90625 1.2890625 C24.41050485 2.20293316 34.65530296 3.00223535 44.125 1.4375 C50.11799347 0.76087171 56.01007762 1.4531672 62 2 C50.65937342 8.6582199 31.27987897 5.23108914 18.5625 4.125 C17.17720093 4.00741333 17.17720093 4.00741333 15.76391602 3.88745117 C10.32812783 3.37432536 5.26106742 2.46448426 0 1 C0 0.67 0 0.34 0 0 Z " fill="#01317D" transform="translate(169,297)"/>
<path d="M0 0 C0.66 0.33 1.32 0.66 2 1 C-4.24599378 6.19826629 -10.65200615 10.2941672 -17.875 14 C-18.87152588 14.51546387 -19.86805176 15.03092773 -20.89477539 15.56201172 C-49.02370191 29.81101863 -49.02370191 29.81101863 -62 29 C-59.31206034 26.31206034 -57.0052339 26.12977359 -53.3125 25.25 C-35.87290012 20.83597568 -19.13473719 12.91249304 -4.33959961 2.70581055 C-2.92909463 1.74851013 -1.46828526 0.86607551 0 0 Z " fill="#013B8F" transform="translate(307,279)"/>
<path d="M0 0 C2.36674118 2.11600116 3.26708401 3.74635001 3.8125 6.875 C4.01882352 10.9250542 3.09616999 13.57465635 0.75 16.9375 C-2.18208229 19.38090191 -3.93822321 19.90409534 -7.75 20.3125 C-12.36902872 19.81760407 -14.71561207 18.36606807 -18.0625 15.25 C-19.82015494 11.82719828 -19.87866313 8.6523276 -19.25 4.9375 C-17.30044571 0.72646274 -16.11318026 -0.70153371 -11.8125 -2.5 C-6.55542853 -3.33006392 -4.50808015 -2.86089702 0 0 Z M-16.140625 2.17578125 C-18.44575462 5.83639203 -18.14925912 9.83549493 -17.25 13.9375 C-15.08482114 16.87096813 -13.63355509 17.70608687 -10.0546875 18.3046875 C-6.10809643 18.5261134 -3.97049568 18.47787176 -0.75 16.0625 C1.969456 12.20993733 2.15154756 9.67576123 1.75 4.9375 C-0.04562405 2.18420979 -1.30254922 0.41122539 -4.25 -1.0625 C-9.11073759 -1.62335434 -12.44100068 -1.29510286 -16.140625 2.17578125 Z " fill="#013481" transform="translate(80.25,51.0625)"/>
<path d="M0 0 C3.21103317 2.32287506 4.64866839 4.34125322 6.5 7.8125 C7.18730103 12.19404406 6.33980618 15.24638868 4 19 C0.65999341 21.56326087 -1.9434498 22.24092558 -6.0625 22 C-10.2549695 21.28381999 -12.37874107 19.35848801 -15 16 C-15 15.34 -15 14.68 -15 14 C-15.66 13.67 -16.32 13.34 -17 13 C-16.13803959 8.51780586 -14.37280876 4.5840101 -11.375 1.125 C-7.6156233 -0.65575739 -4.06991058 -0.77037593 0 0 Z M-11 3 C-13.11569184 5.72017523 -13.93911153 7.58247904 -14.4375 11 C-13.8943967 14.72413693 -12.59513183 16.32854076 -10 19 C-6.89951072 20.55024464 -4.42105782 20.28992015 -1 20 C1.94354571 18.46423702 3.49892777 17.30835527 4.703125 14.1640625 C5.56512205 9.99774344 5.19664741 8.33798773 3 4.5625 C-1.22020559 0.95774106 -6.27969442 -0.70881153 -11 3 Z " fill="#014990" transform="translate(307,49)"/>
<path d="M0 0 C0.886875 0.598125 1.77375 1.19625 2.6875 1.8125 C4.7090624 3.14749404 6.76598653 4.43294891 8.875 5.625 C9.57625 6.07875 10.2775 6.5325 11 7 C11 7.66 11 8.32 11 9 C11.61875 9.2475 12.2375 9.495 12.875 9.75 C15 11 15 11 15.875 12.84375 C17.23859651 15.45730997 18.87385333 16.8619415 21.125 18.75 C21.84945313 19.36359375 22.57390625 19.9771875 23.3203125 20.609375 C23.87460937 21.06828125 24.42890625 21.5271875 25 22 C24.67 22.66 24.34 23.32 24 24 C23.01 23.34 22.02 22.68 21 22 C21.33 22.99 21.66 23.98 22 25 C21.34 25 20.68 25 20 25 C18.68 22.69 17.36 20.38 16 18 C15.34 18.33 14.68 18.66 14 19 C12.22838751 17.38944319 11.05213299 16.1075243 10 13.9375 C9.02674942 11.66757845 9.02674942 11.66757845 6 10 C6 9.34 6 8.68 6 8 C5.195625 7.566875 4.39125 7.13375 3.5625 6.6875 C1 5 1 5 0.1875 2.3125 C0.0946875 1.1678125 0.0946875 1.1678125 0 0 Z " fill="#0362C3" transform="translate(301,91)"/>
<path d="M0 0 C3.58552881 1.63687185 4.79315055 2.68972583 7 6 C7.265625 8.12109375 7.265625 8.12109375 7.25 10.4375 C7.25515625 11.19933594 7.2603125 11.96117188 7.265625 12.74609375 C6.96793844 15.27205175 6.34975476 16.8514108 5 19 C0.88581801 21.8407447 -2.28794469 22.49963257 -7.1015625 21.6328125 C-10.43323753 20.52225416 -11.98297508 18.8116105 -14 16 C-14.96685978 12.39039015 -15.22094728 9.95007329 -14.375 6.3125 C-10.84384455 0.37373856 -6.56347433 -1.11605636 0 0 Z M-11.625 4 C-13.5090548 8.11066502 -13.50149636 10.4865328 -13 15 C-11.25746655 18.23613354 -10.52814056 18.82395315 -7 20 C-1.14556705 20.38488816 -1.14556705 20.38488816 4 18 C6.30567313 14.77205762 6.32369432 11.88433181 6 8 C4.79293121 4.65734795 4.07943151 4.05295434 1 2 C-3.76764532 1.2438626 -7.71053862 1.01755324 -11.625 4 Z " fill="#013680" transform="translate(34,101)"/>
<path d="M0 0 C3.83473284 -0.35671933 5.55342875 -0.29771416 8.8125 1.875 C11.72749627 4.70671066 12.20202475 6.35402795 12.375 10.3125 C12.35031361 14.14506165 12.13918768 14.82418398 9.625 18 C5.51423972 21.13200784 3.19164686 21.35197606 -2 21 C-5.5386994 19.34860695 -6.81070153 18.28394771 -9 15 C-9.54520806 11.93535679 -9.55270563 9.06402832 -9 6 C-6.5 2.9375 -6.5 2.9375 -4 1 C-3.01 1.33 -2.02 1.66 -1 2 C-1.61875 2.2475 -2.2375 2.495 -2.875 2.75 C-5.49443701 4.2908453 -6.13480643 5.08980346 -7 8 C-6.87213096 11.64426778 -6.76034026 14.05717808 -4.4375 16.9375 C-0.01062046 18.86716544 4.4316176 18.52279413 9 17 C9.64819737 13.17563552 10.1587804 10.02073115 9.5625 6.1875 C7.16788498 2.83503898 3.85835434 2.1036688 0 1 C0 0.67 0 0.34 0 0 Z " fill="#013B8F" transform="translate(245,190)"/>
<path d="M0 0 C2.5647293 1.50012468 4.89183465 2.89183465 7 5 C7.43113614 8.38133912 7.473253 11.62269448 7 15 C4.54583577 17.95943333 2.74070921 18.75846439 -0.875 19.9375 C-5.02745048 20.02054901 -7.42181243 19.09290216 -11 17 C-13.10492939 13.97416401 -14.02758549 12.13100523 -13.9375 8.4375 C-12.76489787 5.38873445 -11.23805862 3.36970913 -9 1 C-5.64870516 -0.11709828 -3.51689744 -0.34479387 0 0 Z M-12 7 C-12.15129568 11.31192698 -11.70478473 13.21466844 -8.8125 16.4375 C-5.50745856 18.27363413 -3.7271242 18.47580309 0 18 C3.34265205 16.79293121 3.94704566 16.07943151 6 13 C5.86300711 9.23269564 5.48289599 6.75331775 3.4375 3.5625 C0.59952998 1.74328845 -1.65820223 1.36562934 -5.0234375 1.5546875 C-8.59330089 2.35896502 -10.03334166 4.01829219 -12 7 Z " fill="#00368A" transform="translate(196,220)"/>
<path d="M0 0 C5.89571435 2.61743802 10.40785473 7.71743343 14 13 C13.67 13.66 13.34 14.32 13 15 C13 18.20793348 13.86903034 20.31647637 15.08349609 23.24414062 C18.54858337 31.63642748 19.97141151 38.85168411 20 48 C18.08015632 44.81710127 17.41821727 41.57881182 16.70800781 37.95922852 C14.11924102 24.76562548 9.91047382 13.7503269 1.5390625 3.01171875 C0 1 0 1 0 0 Z " fill="#0353A0" transform="translate(341,123)"/>
<path d="M0 0 C2.60847629 1.49745861 4.87028902 2.87028902 7 5 C7.51880799 9.66927187 7.96395769 13.68259116 5.125 17.5625 C0.60406666 20.62077844 -3.64086496 20.85678961 -9 20 C-11.95774285 18.32266531 -12.36232671 17.21887509 -14 14 C-14.50074603 10.03576056 -14.14308321 6.64057125 -11.82421875 3.3125 C-8.1099892 -0.21151294 -4.91765707 -0.79033774 0 0 Z M-11 5 C-12.56918492 6.56918492 -12.28258943 8.14085159 -12.375 10.3125 C-12.32425743 13.85320391 -12.23889097 14.70319607 -9.9375 17.5625 C-6.25456163 19.36478899 -4.05704375 19.57957768 0 19 C2.9901643 17.59121904 2.9901643 17.59121904 5 15 C6.13146455 11.11059061 6.38624541 8.96561354 4.875 5.1875 C2.70960085 2.66120099 1.18549599 1.8760114 -2 1 C-6.01389555 1 -7.79373524 2.69985354 -11 5 Z " fill="#003C93" transform="translate(143,129)"/>
<path d="M0 0 C0.66 0.33 1.32 0.66 2 1 C-8.67799999 9.63327659 -20.6972852 16.28045567 -33.3125 21.625 C-34.11856689 21.96772949 -34.92463379 22.31045898 -35.75512695 22.66357422 C-39.54671315 24.21278981 -41.79987099 25 -46 25 C-45.34 23.68 -44.68 22.36 -44 21 C-43.13246094 21.0515625 -42.26492188 21.103125 -41.37109375 21.15625 C-35.3416699 20.87678655 -30.30261584 17.69198937 -25 15 C-24.37287109 14.68434082 -23.74574219 14.36868164 -23.09960938 14.04345703 C-14.96441356 9.92022329 -7.30650891 5.50137141 0 0 Z " fill="#002C74" transform="translate(318,308)"/>
<path d="M0 0 C3.32966324 0.42963397 6.02783246 1.42460514 9.03125 2.84765625 C14.0866601 5.12691494 19.22828561 6.7004091 24.5625 8.1875 C25.45646484 8.44724609 26.35042969 8.70699219 27.27148438 8.97460938 C32.53028871 10.46338573 37.5749689 11.38479029 43 12 C43.495 12.495 43.495 12.495 44 13 C45.67884238 13.3931648 47.36850045 13.74085452 49.0625 14.0625 C49.98160156 14.23910156 50.90070313 14.41570312 51.84765625 14.59765625 C52.55792969 14.73042969 53.26820313 14.86320312 54 15 C54 15.33 54 15.66 54 16 C48.26635599 16.16749971 43.20313016 15.6717034 37.625 14.375 C36.85478516 14.1989624 36.08457031 14.0229248 35.29101562 13.84155273 C23.09380977 10.94434538 10.94412587 7.21450363 0 1 C0 0.67 0 0.34 0 0 Z " fill="#003385" transform="translate(128,295)"/>
<path d="M0 0 C2.5 2.125 2.5 2.125 4 5 C4.25 8.3125 4.25 8.3125 4 11 C2.79371992 8.66785852 1.8345262 6.50357861 1 4 C-2.24688563 2.45035004 -4.19692062 1.83573376 -7.75 2.5625 C-10.14496736 3.87399672 -10.14496736 3.87399672 -11.5 6.3125 C-12.25407126 9.05807877 -12.25407126 9.05807877 -10.9375 11.75 C-9.17584102 14.13341497 -9.17584102 14.13341497 -6.625 15 C-3.29369031 15 -1.72116217 13.83862309 1 12 C1.66 12 2.32 12 3 12 C2 15 2 15 -1 17 C-4.75333707 17.73098699 -8.46834391 18.03145309 -11.734375 15.83203125 C-13.90101564 13.46455032 -15 11.67050814 -15 8.4375 C-13.88432776 5.71804892 -12.72376176 3.38674705 -11 1 C-7.28888231 -0.23703923 -3.85103869 -0.68187405 0 0 Z " fill="#00348C" transform="translate(159,227)"/>
<path d="M0 0 C3.19688909 2.70506 3.90802205 4.35615434 4.5 8.5 C3.90802205 12.64384566 3.19688909 14.29494 0 17 C-3.97894194 17.57875519 -6.24499054 17.36109148 -9.875 15.625 C-12 14 -12 14 -13 12 C-13.25303321 8.12015747 -13.30454139 5.22635795 -11 2 C-7.56966462 -0.54098917 -4.14006158 -0.5175077 0 0 Z M-9.9375 3.0625 C-11.6140629 6.11976176 -11.36528977 8.5906288 -11 12 C-10.08333333 14.08333333 -10.08333333 14.08333333 -8 15 C-3.63293092 15.38991688 -1.69486103 15.46324069 2 13 C3.08916154 9.62649951 3.08916154 9.62649951 3 6 C1.6469872 3.39685006 1.6469872 3.39685006 -1 2 C-4.46230815 1.57480426 -6.8347167 1.36097367 -9.9375 3.0625 Z " fill="#00389A" transform="translate(122,162)"/>
<path d="M0 0 C3.38216497 2.16805447 3.898503 3.594012 4.875 7.5 C5.05714286 12.6 5.05714286 12.6 3 15 C-0.35130026 16.83373033 -2.83568562 18.02707708 -6.6875 17.9375 C-9.60933927 16.75297057 -11.06466882 15.48828294 -13 13 C-14.35729962 9.56150763 -14.11499231 8.29323039 -12.75 4.8125 C-9.56322069 -0.3091096 -5.68253042 -0.90508045 0 0 Z M-9.9375 3.0625 C-11.60093625 6.09582493 -11.93957505 8.55577787 -12 12 C-10.58333333 14.58333333 -10.58333333 14.58333333 -8 16 C-4.22527006 16.64250722 -2.49379821 16.26836859 0.875 14.4375 C3.31908949 12.08178535 3.31908949 12.08178535 3.5 8.4375 C3.21322285 5.15485626 3.21322285 5.15485626 2 3.0625 C-1.71901146 1.08677516 -6.23184336 1.03036571 -9.9375 3.0625 Z " fill="#013C89" transform="translate(199,7)"/>
<path d="M0 0 C3.16115776 1.36983503 3.9927092 1.9890638 6 5 C7.22959512 9.68783141 7.81024357 14.07495321 5.8984375 18.6171875 C3.2802251 22.71234023 0.68167001 26.33540622 -4 28 C-10.40908459 29.23856543 -15.3522514 29.81604635 -21 26 C-20.34 25.67 -19.68 25.34 -19 25 C-18.01 25.33 -17.02 25.66 -16 26 C-9.3464079 26.44357281 -4.72333526 25.69620829 0.8125 21.6875 C3.72961605 17.54212456 4.59558019 12.96316828 4 8 C2.84466592 5.22719821 1.48384441 2.60997633 0 0 Z " fill="#0065D4" transform="translate(224,127)"/>
<path d="M0 0 C-2.46278801 2.46278801 -4.70676982 2.99771255 -8 4 C-8.74714785 6.68973228 -9.1205535 8.51778598 -8.4375 11.25 C-7.04317775 13.27713393 -7.04317775 13.27713393 -4.125 13.875 C-0.95317812 14.00187288 0.38930678 13.70699172 3 12 C3.24428343 6.2025577 3.24428343 6.2025577 1 1 C4.875 2.75 4.875 2.75 6 5 C6.2965955 8.41084821 6.35902137 10.37987218 4.625 13.375 C4.08875 13.91125 3.5525 14.4475 3 15 C2.34 15 1.68 15 1 15 C1 15.66 1 16.32 1 17 C-2.83473284 17.35671933 -4.55342875 17.29771416 -7.8125 15.125 C-10.6224973 12.39528834 -10.93778238 11.55995855 -11.375 7.625 C-11 4 -11 4 -8.875 1.5625 C-5.61672415 -0.20830209 -3.65236803 -0.33975517 0 0 Z " fill="#01388E" transform="translate(236,227)"/>
<path d="M0 0 C0 3 0 3 -1.71484375 4.97265625 C-2.81505859 6.00712891 -2.81505859 6.00712891 -3.9375 7.0625 C-6.86434414 9.73700793 -6.86434414 9.73700793 -9 13 C-10.30246459 13.80241122 -11.64320181 14.54333428 -13 15.25 C-16.32010247 17.03370006 -19.4561012 18.92853909 -22.5625 21.0625 C-32.78052326 28 -32.78052326 28 -37 28 C-37 27.34 -37 26.68 -37 26 C-35.71029297 25.41605469 -35.71029297 25.41605469 -34.39453125 24.8203125 C-21.16139209 18.55730007 -10.65765835 9.95997868 0 0 Z " fill="#013486" transform="translate(308,244)"/>
<path d="M0 0 C2.5 2.125 2.5 2.125 4 5 C3.81170224 8.6404233 3.14922369 11.55232893 2 15 C-6.63502756 15.4390692 -6.63502756 15.4390692 -11 12 C-12.56430248 8.87139505 -12.35627284 6.44397075 -12 3 C-8.33835517 -1.43835736 -5.37496501 -1.66135282 0 0 Z M-8.875 2.125 C-10.52854531 4.88090884 -10.39365568 6.85075452 -10 10 C-9.06402685 12.01951062 -9.06402685 12.01951062 -7 13 C-3.45786015 13.50007794 -3.45786015 13.50007794 0 13 C2.31282587 9.53076119 2.42478586 8.07794425 2 4 C1 2 1 2 -1 1 C-4.14924548 0.60634432 -6.11909116 0.47145469 -8.875 2.125 Z " fill="#003690" transform="translate(111,208)"/>
<path d="M0 0 C2.32893759 1.82538352 3.65908902 3.24512569 4.875 5.9375 C5.04885552 8.806116 4.35779132 10.47838754 3 13 C0.52275835 15.66074103 -0.84537493 15.98067187 -4.5 16.4375 C-8 16 -8 16 -10.375 14.375 C-12.38506043 11.43721938 -12.92733979 9.5603504 -13 6 C-11.76356597 3.13667909 -10.66847461 1.50711867 -8.1875 -0.375 C-5.08685996 -1.26089715 -3.08383471 -0.89945179 0 0 Z M-9.4375 2.5625 C-11.34287189 5.02667281 -11.34287189 5.02667281 -10.875 8.625 C-10.29259286 12.04542055 -10.29259286 12.04542055 -8 14 C-5.06811139 14.27922749 -2.84609353 14.47143881 0 14 C2.45636081 11.92744557 2.88864581 10.63630966 3.4375 7.5 C2.84278924 4.10165277 1.79734842 2.98758966 -1 1 C-4.65852292 0.39024618 -6.30512879 0.55456974 -9.4375 2.5625 Z " fill="#024189" transform="translate(256,19)"/>
<path d="M0 0 C2.33443483 1.78154237 3.59746623 3.22176804 4.9375 5.8125 C5.04381863 9.53365211 3.87730763 11.83204337 2 15 C-2.02766494 16.97583563 -3.97168013 17.3361815 -8.25 15.9375 C-11.25947634 13.81718712 -12.6212724 12.4062682 -14 9 C-13.81324726 5.17156888 -12.59435342 2.79391906 -10 0 C-6.19426871 -1.2685771 -3.89430952 -0.88817586 0 0 Z M-10.5 2.5625 C-12.31118285 5.02866158 -12.31118285 5.02866158 -12 8.5625 C-11.2562844 11.94931297 -11.2562844 11.94931297 -9.375 14 C-5.88418213 15.46981805 -3.60851044 14.98413921 0 14 C2.14782671 12.44202118 2.14782671 12.44202118 3 10 C2.87304813 6.88967921 2.47953174 4.79921957 0.875 2.125 C-3.00200806 -0.20120483 -6.76983611 0.23114757 -10.5 2.5625 Z " fill="#013683" transform="translate(132,19)"/>
<path d="M0 0 C4.80815498 -0.47138774 7.95351764 -0.70477383 12.0625 2.0625 C14.4896757 5.74241154 14.80065271 7.67647537 14 12 C11.9375 14 11.9375 14 9 15 C5.58209158 14.88214109 3.07436301 14.58916681 0.0625 12.9375 C-1.66006721 9.79634803 -1.36723033 6.50281237 -1 3 C-0.67 2.01 -0.34 1.02 0 0 Z M1 4.1875 C-0.29005448 6.9676527 -0.29005448 6.9676527 0.75 9.75 C1.81112922 11.90270293 1.81112922 11.90270293 3 13 C6.45821402 13.25003964 6.45821402 13.25003964 10 13 C12.29827312 11.12061828 12.29827312 11.12061828 12.3125 8.0625 C12.22697575 5.07739953 12.22697575 5.07739953 10.875 3.125 C7.07178144 0.84306886 4.00386695 0.90202053 1 4.1875 Z " fill="#00368E" transform="translate(187,256)"/>
<path d="M0 0 C2 2.0625 2 2.0625 3 5 C2.875 8.6875 2.875 8.6875 2 12 C-1.51824511 14.34549674 -2.85775694 14.57991403 -7 14 C-9.9375 11.875 -9.9375 11.875 -12 9 C-12.07050215 5.4748923 -11.68878725 3.79475451 -9.375 1.125 C-6.00674004 -0.47049156 -3.67342406 -0.53431623 0 0 Z M-8.9375 3.125 C-10.25164183 5.08488758 -10.25164183 5.08488758 -10 8.0625 C-9.2776608 11.13720284 -9.2776608 11.13720284 -6.75 12.5625 C-3.90164797 13.28581414 -3.90164797 13.28581414 -1.1875 11.625 C-0.465625 11.08875 0.25625 10.5525 1 10 C0.81535634 5.65815798 0.81535634 5.65815798 -1 2 C-5.15199221 1.63703121 -5.15199221 1.63703121 -8.9375 3.125 Z " fill="#013688" transform="translate(251,250)"/>
<path d="M0 0 C4.07118515 3.72222642 7.84924501 7.84842971 10 13 C9.60546875 15.1015625 9.60546875 15.1015625 9 17 C9.31595508 18.67004829 9.65179959 20.33637583 10 22 C10.03824623 24.33301986 10.04574284 26.66711508 10 29 C9.34 28.67 8.68 28.34 8 28 C7.578125 26.0234375 7.578125 26.0234375 7.25 23.375 C6.30867551 17.50329561 4.34142745 12.39116605 2.03222656 6.95263672 C0 2.16095295 0 2.16095295 0 0 Z " fill="#0280DC" transform="translate(352,136)"/>
<path d="M0 0 C2.875 1.5 2.875 1.5 5 4 C5.42242213 6.80188855 5.23816991 9.1419611 5 12 C4.01 12.495 4.01 12.495 3 13 C3.04125 11.88625 3.0825 10.7725 3.125 9.625 C3.41121859 5.95633975 3.41121859 5.95633975 1 4 C0.67 3.34 0.34 2.68 0 2 C-4.34184202 2.18464366 -4.34184202 2.18464366 -8 4 C-8.41692853 7.41600593 -8.41692853 7.41600593 -8 11 C-5.41126058 13.87637713 -2.76085859 14.47765853 1 15 C1 15.33 1 15.66 1 16 C-3.29107165 16.4206933 -5.35134537 16.45543836 -8.9375 13.9375 C-11 11 -11 11 -11.625 7.4375 C-11 4 -11 4 -8.875 1.5625 C-5.48401457 -0.28042686 -3.80152049 -0.63358675 0 0 Z " fill="#00358C" transform="translate(282,207)"/>
<path d="M0 0 C2.4375 1.625 2.4375 1.625 4 4 C4.25 7.25 4.25 7.25 4 10 C2.5393715 7.35261084 2 6.10551666 2 3 C-0.64 2.67 -3.28 2.34 -6 2 C-7.73666727 4.19832713 -7.73666727 4.19832713 -9 7 C-8.30514736 9.78223378 -8.30514736 9.78223378 -7 12 C-5.906875 12 -4.81375 12 -3.6875 12 C-1.45833333 12 0.77083333 12 3 12 C1.9375 13.5 1.9375 13.5 0 15 C-3.89504791 15.49573337 -6.09493717 15.58016848 -9.4375 13.4375 C-11.60396028 10.05782196 -11.56288002 7.94016013 -11 4 C-8.11188513 -0.5054592 -5.11821063 -0.73117295 0 0 Z " fill="#013D94" transform="translate(110,115)"/>
<path d="M0 0 C4.06734624 2.4085961 7.52859582 4.88695675 9.91015625 9.0546875 C10.16015625 12.8671875 10.16015625 12.8671875 9.91015625 16.0546875 C9.58015625 16.0546875 9.25015625 16.0546875 8.91015625 16.0546875 C8.66265625 15.0028125 8.41515625 13.9509375 8.16015625 12.8671875 C7.07873658 9.18290254 5.74858185 6.73968469 2.91015625 4.0546875 C-2.49465502 1.76803658 -6.49259511 1.79079265 -12.08984375 3.0546875 C-14.92117176 4.81908772 -14.92117176 4.81908772 -17.08984375 7.0546875 C-17.68796875 7.6321875 -18.28609375 8.2096875 -18.90234375 8.8046875 C-19.49015625 9.4234375 -19.49015625 9.4234375 -20.08984375 10.0546875 C-18.48894928 4.81539651 -15.64611732 2.75886988 -11.21484375 -0.1953125 C-7.29000655 -1.58054916 -3.84701857 -1.74014672 0 0 Z " fill="#003993" transform="translate(162.08984375,154.9453125)"/>
<path d="M0 0 C-1.19753906 0.47308594 -2.39507812 0.94617187 -3.62890625 1.43359375 C-12.67511045 5.08435665 -21.20352374 8.91017126 -29.36547852 14.29272461 C-30.86790078 15.26413112 -32.43040032 16.14136147 -34 17 C-34.99 16.67 -35.98 16.34 -37 16 C-9.50094345 -2.94856866 -9.50094345 -2.94856866 0 0 Z " fill="#013D93" transform="translate(148,53)"/>
<path d="M0 0 C4.21912747 0.4794463 6.79663178 1.16625119 10 4 C9.52166934 10.33788122 9.52166934 10.33788122 7.375 13.0625 C3.78123465 14.48109159 1.49330239 13.38413868 -2 12 C-3.40457737 9.19084526 -3.24895157 7.11189466 -3 4 C-1.5 1.625 -1.5 1.625 0 0 Z M0 3 C-0.66 4.65 -1.32 6.3 -2 8 C-0.33454661 10.16641665 -0.33454661 10.16641665 2 12 C5.3321498 11.80801478 5.3321498 11.80801478 8 10 C8.04080783 8.00041636 8.04254356 5.99954746 8 4 C5.29120665 2.64560332 2.99066732 2.93498549 0 3 Z " fill="#003185" transform="translate(137,250)"/>
<path d="M0 0 C1.5625 2.8125 1.5625 2.8125 2 6 C-0.09302326 11.54651163 -0.09302326 11.54651163 -3 13 C-7.05263598 13.54035146 -8.53730231 13.34199395 -11.875 10.875 C-14 8 -14 8 -14.5625 4.9375 C-13.87380287 1.34097053 -12.90567935 0.17925951 -10 -2 C-6.0845431 -3.95772845 -3.4434871 -2.32061087 0 0 Z M-11.3125 0.6875 C-13.263461 2.86811423 -13.263461 2.86811423 -12.9375 5.5625 C-11.93860859 8.15961767 -11.22386568 9.35269209 -9 11 C-6.58665315 12.01204868 -5.3681206 12.08414185 -2.8125 11.5 C-0.66343294 9.99803503 -0.66343294 9.99803503 0.0625 6.625 C0.39417884 2.90393713 0.39417884 2.90393713 -2.1875 0.5625 C-5.82313113 -1.45729507 -7.86986552 -1.82469273 -11.3125 0.6875 Z " fill="#02317E" transform="translate(23,169)"/>
<path d="M0 0 C2 2.25 2 2.25 3 5 C2.18795587 8.17435434 1.31819425 9.68180575 -1 12 C-7.08695652 11.45652174 -7.08695652 11.45652174 -10 10 C-10.48428405 2.61466822 -10.48428405 2.61466822 -8.375 -0.0625 C-5.09591455 -1.35687583 -3.32534294 -1.13203164 0 0 Z M-8 2 C-9.15317663 4.97903963 -9.0448029 5.86559131 -8 9 C-5.69 9.33 -3.38 9.66 -1 10 C0.23396041 8.2857711 0.23396041 8.2857711 1 6 C0.50845917 3.27102833 0.50845917 3.27102833 -1 1 C-4.32658403 -0.60963744 -4.80217502 -0.13188332 -8 2 Z " fill="#00368E" transform="translate(93,165)"/>
<path d="M0 0 C0.33 0.66 0.66 1.32 1 2 C-3.0248087 8.15058794 -7.44102602 13.89672513 -12.1875 19.5 C-12.69829102 20.11117676 -13.20908203 20.72235352 -13.73535156 21.35205078 C-18.28533107 26.65243514 -18.28533107 26.65243514 -22 28 C-22 27.34 -22 26.68 -22 26 C-21.34 26 -20.68 26 -20 26 C-19.77699219 25.45601563 -19.55398438 24.91203125 -19.32421875 24.3515625 C-17.58828832 21.26887778 -15.24632279 18.90646987 -12.8125 16.375 C-7.99019604 11.25512092 -3.83251957 5.91228275 0 0 Z " fill="#02449A" transform="translate(344,240)"/>
<path d="M0 0 C2.4040405 3.60606076 2.25816715 5.017694 1.59375 9.125 C1 11 1 11 -1.0625 13 C-4.85637304 14.29153125 -8.03877718 14.70421739 -12 14 C-14.9375 12.4375 -14.9375 12.4375 -17 10 C-17.8125 6.25 -17.8125 6.25 -18 3 C-16 6 -16 6 -14.5625 8.6875 C-13.7890625 9.8321875 -13.7890625 9.8321875 -13 11 C-12.01 11 -11.02 11 -10 11 C-9.67 11.66 -9.34 12.32 -9 13 C-4.70111387 11.48134786 -4.70111387 11.48134786 -1 9 C-0.76807135 7.48530552 -0.58784762 5.96245438 -0.4375 4.4375 C-0.35371094 3.61121094 -0.26992187 2.78492187 -0.18359375 1.93359375 C-0.09271484 0.97646484 -0.09271484 0.97646484 0 0 Z " fill="#003B94" transform="translate(163,98)"/>
<path d="M0 0 C0.66 0 1.32 0 2 0 C1.67 0.70125 1.34 1.4025 1 2.125 C-0.1492099 5.42897847 -0.50618296 7.52903112 0 11 C3.15309622 15.08047746 6.04032572 16.73124612 11 18 C11 18.33 11 18.66 11 19 C3.77885953 18.63282337 3.77885953 18.63282337 0 15.5625 C-2 13 -2 13 -2 11 C-2.66 10.67 -3.32 10.34 -4 10 C-3.29445932 6.33118845 -1.72264494 3.29549466 0 0 Z " fill="#0250A5" transform="translate(294,52)"/>
<path d="M0 0 C1.98 0 3.96 0 6 0 C6 0.66 6 1.32 6 2 C6.928125 2.1546875 6.928125 2.1546875 7.875 2.3125 C10 3 10 3 12 6 C11.96856707 8.73990408 11.44521663 11.28417854 11 14 C10.34 14 9.68 14 9 14 C8.34 11.03 7.68 8.06 7 5 C6.21625 4.9175 5.4325 4.835 4.625 4.75 C2 4 2 4 0.6875 1.9375 C0.460625 1.298125 0.23375 0.65875 0 0 Z " fill="#0070CE" transform="translate(244,71)"/>
<path d="M0 0 C0.99 0 1.98 0 3 0 C-0.91071429 10.75446429 -0.91071429 10.75446429 -6.25 13.9375 C-7.1575 14.288125 -8.065 14.63875 -9 15 C-7.61821263 11.18461696 -5.86310038 8.02708119 -3.5625 4.6875 C-2.96566406 3.80449219 -2.36882813 2.92148438 -1.75390625 2.01171875 C-1.17511719 1.34785156 -0.59632812 0.68398437 0 0 Z " fill="#0142A2" transform="translate(66,108)"/>
<path d="M0 0 C5.68131407 0.46568148 9.4028676 2.16717367 13.8125 5.75 C15.8125 8.3125 15.8125 8.3125 15.625 10.625 C15.356875 11.181875 15.08875 11.73875 14.8125 12.3125 C11.8125 7.5625 11.8125 7.5625 11.8125 5.3125 C6.16449888 3.4707605 0.72742272 2.76474761 -5.1875 2.3125 C-3.1875 0.3125 -3.1875 0.3125 0 0 Z " fill="#003D95" transform="translate(174.1875,185.6875)"/>
<path d="M0 0 C8.44646925 6.15034169 8.44646925 6.15034169 12 10 C11.67 10.66 11.34 11.32 11 12 C10.01 11.34 9.02 10.68 8 10 C8.33 10.99 8.66 11.98 9 13 C8.34 13 7.68 13 7 13 C5.2734375 10.6640625 5.2734375 10.6640625 3.375 7.625 C2.74335938 6.62726563 2.11171875 5.62953125 1.4609375 4.6015625 C0 2 0 2 0 0 Z " fill="#0485DF" transform="translate(314,103)"/>
<path d="M0 0 C-14.6287594 7.71334586 -14.6287594 7.71334586 -22 7 C-18.67543639 4.78362426 -15.24208576 3.31185182 -11.5625 1.8125 C-10.89412109 1.52697266 -10.22574219 1.24144531 -9.53710938 0.94726562 C-3.45676681 -1.5294646 -3.45676681 -1.5294646 0 0 Z " fill="#02378B" transform="translate(270,273)"/>
<path d="M0 0 C2.64 0 5.28 0 8 0 C8 0.66 8 1.32 8 2 C13.28 2 18.56 2 24 2 C23.67 2.66 23.34 3.32 23 4 C19.9163358 3.86068862 16.83316583 3.71240719 13.75 3.5625 C12.87730469 3.52318359 12.00460938 3.48386719 11.10546875 3.44335938 C10.26113281 3.40146484 9.41679687 3.35957031 8.546875 3.31640625 C7.77182617 3.27974854 6.99677734 3.24309082 6.19824219 3.20532227 C4.0425024 3.00396985 2.08198525 2.58270703 0 2 C0 1.34 0 0.68 0 0 Z " fill="#0045B5" transform="translate(177,296)"/>
<path d="M0 0 C0.33 0 0.66 0 1 0 C2.12956674 4.88215425 1.73575713 8.92137665 0.6875 13.75 C0.55666016 14.42160156 0.42582031 15.09320313 0.29101562 15.78515625 C-0.73582688 20.73582688 -0.73582688 20.73582688 -3 23 C-2.01 15.41 -1.02 7.82 0 0 Z " fill="#0172D9" transform="translate(337,177)"/>
<path d="M0 0 C-2.03017447 1.01508723 -4.04780015 2.0210883 -6.125 2.9375 C-8.32357759 3.99740267 -8.32357759 3.99740267 -10 7 C-10.45139459 9.0492094 -10.45139459 9.0492094 -10.625 11.1875 C-10.74875 12.445625 -10.8725 13.70375 -11 15 C-11.66 14.67 -12.32 14.34 -13 14 C-12.96683415 6.38843724 -12.96683415 6.38843724 -10.80859375 3.2890625 C-7.32565969 0.14259988 -4.5786851 -0.54508156 0 0 Z " fill="#012A76" transform="translate(32,101)"/>
<path d="M0 0 C6.09067026 -0.42004622 9.10816881 -0.0566405 14 4 C15.4783226 6.95664519 15.06032783 9.74229737 15 13 C14.731875 12.443125 14.46375 11.88625 14.1875 11.3125 C13.795625 10.549375 13.40375 9.78625 13 9 C12.5875 8.13375 12.175 7.2675 11.75 6.375 C9.48862924 3.30599683 7.62808329 2.96255271 4 2 C2.65278717 1.36184656 1.31252882 0.70674629 0 0 Z " fill="#02479D" transform="translate(189,98)"/>
<path d="M0 0 C5.78473277 2.30103815 10.51448972 4.6295028 15 9 C15 9.66 15 10.32 15 11 C11.11886476 10.44555211 9.71136783 8.71136783 7 6 C4.71832952 4.54623587 2.38502881 3.28424628 0 2 C0 1.34 0 0.68 0 0 Z " fill="#0072CA" transform="translate(266,69)"/>
<path d="M0 0 C-2.76223278 2.76223278 -5.20706617 2.57856291 -9 3 C-9 5.31 -9 7.62 -9 10 C-9.99 10.495 -9.99 10.495 -11 11 C-11.8125 8.3125 -11.8125 8.3125 -12 5 C-8.55194572 0.04342198 -5.87829674 -0.5763036 0 0 Z " fill="#023B95" transform="translate(251,250)"/>
<path d="M0 0 C0.66 0 1.32 0 2 0 C0.44997253 3.88397689 -2.00476621 6.02979619 -5.125 8.75 C-6.49011719 9.94882812 -6.49011719 9.94882812 -7.8828125 11.171875 C-8.58148438 11.77515625 -9.28015625 12.3784375 -10 13 C-10.66 12.67 -11.32 12.34 -12 12 C-10.54782324 10.49403892 -9.08807139 8.99537896 -7.625 7.5 C-6.40683594 6.24703125 -6.40683594 6.24703125 -5.1640625 4.96875 C-3 3 -3 3 -1 3 C-0.67 2.01 -0.34 1.02 0 0 Z " fill="#00317F" transform="translate(336,292)"/>
<path d="M0 0 C1.9375 0.375 1.9375 0.375 4 1 C4.33 1.66 4.66 2.32 5 3 C3.35 3.33 1.7 3.66 0 4 C-0.78282648 5.79199472 -0.78282648 5.79199472 -1 8 C0.3516367 10.24755753 0.3516367 10.24755753 2 12 C0.68 12 -0.64 12 -2 12 C-3.40457737 9.19084526 -3.24895157 7.11189466 -3 4 C-1.5 1.625 -1.5 1.625 0 0 Z " fill="#003899" transform="translate(137,250)"/>
<path d="M0 0 C0 3 0 3 -1.71484375 4.97265625 C-2.44832031 5.66230469 -3.18179687 6.35195312 -3.9375 7.0625 C-6.86434414 9.73700793 -6.86434414 9.73700793 -9 13 C-9.66 12.67 -10.32 12.34 -11 12 C-9.49650623 8.33213607 -7.36271208 6.31089607 -4.375 3.75 C-3.14910156 2.69039062 -3.14910156 2.69039062 -1.8984375 1.609375 C-1.27195312 1.07828125 -0.64546875 0.5471875 0 0 Z " fill="#003898" transform="translate(308,244)"/>
<path d="M0 0 C0.66 0 1.32 0 2 0 C2.185625 1.11375 2.37125 2.2275 2.5625 3.375 C3.036875 4.57125 3.51125 5.7675 4 7 C7.51400668 8.54086322 7.51400668 8.54086322 11 9 C11 9.33 11 9.66 11 10 C3.59743291 10.48541424 3.59743291 10.48541424 1 8.375 C-0.23318878 5.44617664 -0.2145758 3.14711179 0 0 Z " fill="#003E9B" transform="translate(109,168)"/>
<path d="M0 0 C0.33 0 0.66 0 1 0 C1.268125 1.11375 1.53625 2.2275 1.8125 3.375 C2.65809019 7.21840951 2.65809019 7.21840951 6 9 C7.65549531 9.38499891 9.3222433 9.72793135 11 10 C11 10.33 11 10.66 11 11 C6.64631931 11.42683144 4.62941792 11.44583769 1 8.875 C-1 6 -1 6 -0.8125 2.6875 C-0.544375 1.800625 -0.27625 0.91375 0 0 Z " fill="#003D97" transform="translate(272,212)"/>
<path d="M0 0 C2 1 2 1 3.1875 3.625 C4.10714007 7.44504337 3.76490479 10.17547603 3 14 C2.67 14 2.34 14 2 14 C1.34 9.38 0.68 4.76 0 0 Z " fill="#0048B4" transform="translate(61,181)"/>
<path d="M0 0 C0.33 0 0.66 0 1 0 C1.33975517 3.65236803 1.20830209 5.61672415 -0.5625 8.875 C-3 11 -3 11 -6.75 11.3125 C-7.8225 11.209375 -8.895 11.10625 -10 11 C-10 10.67 -10 10.34 -10 10 C-9.05125 9.690625 -8.1025 9.38125 -7.125 9.0625 C-4.13919592 8.12605258 -4.13919592 8.12605258 -2 7 C-1.26924352 4.6859378 -0.59861742 2.35171131 0 0 Z " fill="#013385" transform="translate(125,168)"/>
<path d="M0 0 C0.66 0.33 1.32 0.66 2 1 C-0.17220355 3.73277221 -1.85827965 5.72888915 -5.3359375 6.5546875 C-7.56274452 6.78650022 -9.76217118 6.94637012 -12 7 C-12 6.67 -12 6.34 -12 6 C-11.07767578 5.72736328 -11.07767578 5.72736328 -10.13671875 5.44921875 C-8.92435547 5.07216797 -8.92435547 5.07216797 -7.6875 4.6875 C-6.48673828 4.32205078 -6.48673828 4.32205078 -5.26171875 3.94921875 C-2.90035427 2.95817977 -1.66120007 1.91925057 0 0 Z " fill="#013B91" transform="translate(185,147)"/>
<path d="M0 0 C-4.74705277 3.16470185 -8.31771295 3.10927475 -14 3 C-10.07503936 -0.92496064 -5.24412188 -0.08740203 0 0 Z " fill="#014199" transform="translate(174,46)"/>
<path d="M0 0 C0.350625 0.45375 0.70125 0.9075 1.0625 1.375 C3.77096206 3.64661334 6.60795328 4.16798854 10 5 C10 5.33 10 5.66 10 6 C3.6 6.49230769 3.6 6.49230769 0.5625 4 C0.046875 3.34 -0.46875 2.68 -1 2 C-0.67 1.34 -0.34 0.68 0 0 Z " fill="#024CA9" transform="translate(245,29)"/>
<path d="M0 0 C0.66 0 1.32 0 2 0 C2.6875 2.8125 2.6875 2.8125 3 6 C1.5625 7.875 1.5625 7.875 0 9 C-1.125 2.25 -1.125 2.25 0 0 Z " fill="#003B9D" transform="translate(42,214)"/>
<path d="M0 0 C2 1 2 1 2.6328125 2.84765625 C2.79523438 3.57855469 2.95765625 4.30945313 3.125 5.0625 C3.29257812 5.79597656 3.46015625 6.52945313 3.6328125 7.28515625 C3.75398438 7.85105469 3.87515625 8.41695312 4 9 C3.01 9 2.02 9 1 9 C-0.4783226 6.04335481 -0.06032783 3.25770263 0 0 Z " fill="#017EDA" transform="translate(331,135)"/>
<path d="M0 0 C0 0.66 0 1.32 0 2 C0.99 2.33 1.98 2.66 3 3 C-0.1964086 4.06546953 -2.65747276 4.07427838 -6 4 C-6 3.01 -6 2.02 -6 1 C-3.92446352 0.4465236 -2.15634036 0 0 0 Z " fill="#0040AF" transform="translate(161,331)"/>
<path d="M0 0 C3.3 1.65 6.6 3.3 10 5 C9.34 5.66 8.68 6.32 8 7 C5.36 5.68 2.72 4.36 0 3 C0 2.01 0 1.02 0 0 Z " fill="#0044B3" transform="translate(123,317)"/>
<path d="M0 0 C2.78637633 4.1795645 1.79562512 6.14668677 1 11 C0.01 11 -0.98 11 -2 11 C-1.67 10.34 -1.34 9.68 -1 9 C-0.77532169 7.46331135 -0.59203195 5.92031946 -0.4375 4.375 C-0.35371094 3.55773437 -0.26992187 2.74046875 -0.18359375 1.8984375 C-0.12300781 1.27195312 -0.06242188 0.64546875 0 0 Z " fill="#01449D" transform="translate(163,98)"/>
<path d="M0 0 C2.4375 0.375 2.4375 0.375 5 1 C5.33 1.66 5.66 2.32 6 3 C3.69 3.33 1.38 3.66 -1 4 C-0.67 2.68 -0.34 1.36 0 0 Z " fill="#003991" transform="translate(273,329)"/>
<path d="M0 0 C1.32 0.33 2.64 0.66 4 1 C2.38405168 3.04119788 0.7143618 5.04072937 -1 7 C-1.66 7 -2.32 7 -3 7 C-2.34 5.68 -1.68 4.36 -1 3 C-0.34 3 0.32 3 1 3 C0.67 2.01 0.34 1.02 0 0 Z " fill="#013F9E" transform="translate(289,247)"/>
<path d="M0 0 C0.33 0.66 0.66 1.32 1 2 C-0.65 3.98 -2.3 5.96 -4 8 C-4.66 7.67 -5.32 7.34 -6 7 C-4.02 4.69 -2.04 2.38 0 0 Z " fill="#0066D5" transform="translate(334,256)"/>
<path d="M0 0 C0.66 0.66 1.32 1.32 2 2 C-1.13498292 3.85776765 -3.37471432 4.20140476 -7 4 C-7 3.34 -7 2.68 -7 2 C-4.69 1.34 -2.38 0.68 0 0 Z " fill="#0045B3" transform="translate(159,242)"/>
<path d="M0 0 C0.66 0 1.32 0 2 0 C2.33 1.98 2.66 3.96 3 6 C2.34 6 1.68 6 1 6 C0.67 6.99 0.34 7.98 0 9 C-0.66 8.34 -1.32 7.68 -2 7 C-1.67 6.21625 -1.34 5.4325 -1 4.625 C0.11866511 2.15667503 0.11866511 2.15667503 0 0 Z " fill="#0049BA" transform="translate(95,168)"/>
<path d="M0 0 C0.66 0.33 1.32 0.66 2 1 C0.35 2.98 -1.3 4.96 -3 7 C-3.66 6.34 -4.32 5.68 -5 5 C-3.35 3.35 -1.7 1.7 0 0 Z " fill="#034697" transform="translate(82,91)"/>
<path d="M0 0 C3 1 3 1 3 1 Z " fill="#0054A9" transform="translate(152,302)"/>
<path d="M0 0 C0.66 0.66 1.32 1.32 2 2 C1.34 2 0.68 2 0 2 C0 1.34 0 0.68 0 0 Z " fill="#0054A9" transform="translate(80,97)"/>
<path d="M0 0 C3 1 3 1 3 1 Z " fill="#008DFF" transform="translate(297,92)"/>
<path d="M0 0 C3 1 3 1 3 1 Z " fill="#002AFF" transform="translate(193,43)"/>
<path d="M0 0 C2 1 2 1 2 1 Z " fill="#003FBF" transform="translate(134,330)"/>
<path d="M0 0 C2 1 2 1 2 1 Z " fill="#0033E5" transform="translate(234,307)"/>
<path d="M0 0 C2 1 2 1 2 1 Z " fill="#003FBF" transform="translate(172,307)"/>
<path d="M0 0 C2 1 2 1 2 1 Z " fill="#002AD4" transform="translate(265,299)"/>
<path d="M0 0 C2 1 2 1 2 1 Z " fill="#0033E5" transform="translate(274,267)"/>
<path d="M0 0 C2 1 2 1 2 1 Z " fill="#007F7F" transform="translate(193,259)"/>
<path d="" fill="#003FBF" transform="translate(0,0)"/>
<path d="" fill="#0000FF" transform="translate(0,0)"/>
<path d="M0 0 C2 1 2 1 2 1 Z " fill="#0000FF" transform="translate(106,219)"/>
<path d="M0 0 C2 1 2 1 2 1 Z " fill="#003FBF" transform="translate(134,194)"/>
<path d="M0 0 C2 1 2 1 2 1 Z " fill="#0000FF" transform="translate(182,191)"/>
<path d="" fill="#003FFF" transform="translate(0,0)"/>
<path d="" fill="#003FBF" transform="translate(0,0)"/>
<path d="M0 0 C2 1 2 1 2 1 Z " fill="#0000FF" transform="translate(90,168)"/>
<path d="" fill="#003FFF" transform="translate(0,0)"/>
<path d="M0 0 C2 1 2 1 2 1 Z " fill="#0000FF" transform="translate(182,128)"/>
<path d="M0 0 C2 1 2 1 2 1 Z " fill="#0000FF" transform="translate(65,106)"/>
<path d="M0 0 C2 1 2 1 2 1 Z " fill="#003FFF" transform="translate(305,100)"/>
<path d="M0 0 C2 1 2 1 2 1 Z " fill="#006A94" transform="translate(26,99)"/>
<path d="" fill="#0000FF" transform="translate(0,0)"/>
<path d="" fill="#003FFF" transform="translate(0,0)"/>
<path d="M0 0 C2 1 2 1 2 1 Z " fill="#0000FF" transform="translate(89,86)"/>
<path d="M0 0 C2 1 2 1 2 1 Z " fill="#003FBF" transform="translate(122,59)"/>
<path d="M0 0 C2 1 2 1 2 1 Z " fill="#003FFF" transform="translate(187,43)"/>
<path d="M0 0 C2 1 2 1 2 1 Z " fill="#002AD4" transform="translate(182,43)"/>
<path d="M0 0 C2 1 2 1 2 1 Z " fill="#003FFF" transform="translate(178,43)"/>
<path d="" fill="#0000FF" transform="translate(0,0)"/>
<path d="" fill="#001FDF" transform="translate(0,0)"/>
<path d="" fill="#0000FF" transform="translate(0,0)"/>
<path d="" fill="#0000FF" transform="translate(0,0)"/>
<path d="" fill="#0000FF" transform="translate(0,0)"/>
<path d="" fill="#0000FF" transform="translate(0,0)"/>
<path d="" fill="#007F7F" transform="translate(0,0)"/>
<path d="" fill="#0000FF" transform="translate(0,0)"/>
<path d="" fill="#0000FF" transform="translate(0,0)"/>
<path d="" fill="#0000FF" transform="translate(0,0)"/>
<path d="" fill="#0000FF" transform="translate(0,0)"/>
<path d="" fill="#007F7F" transform="translate(0,0)"/>
<path d="" fill="#0000FF" transform="translate(0,0)"/>
<path d="" fill="#0000FF" transform="translate(0,0)"/>
<path d="" fill="#0000FF" transform="translate(0,0)"/>
<path d="" fill="#0000FF" transform="translate(0,0)"/>
<path d="" fill="#0000FF" transform="translate(0,0)"/>
<path d="" fill="#007F7F" transform="translate(0,0)"/>
<path d="" fill="#0055AA" transform="translate(0,0)"/>
<path d="" fill="#0000FF" transform="translate(0,0)"/>
<path d="" fill="#0000FF" transform="translate(0,0)"/>
<path d="" fill="#007F7F" transform="translate(0,0)"/>
<path d="" fill="#0000FF" transform="translate(0,0)"/>
<path d="" fill="#0000FF" transform="translate(0,0)"/>
<path d="" fill="#0000FF" transform="translate(0,0)"/>
<path d="" fill="#007F7F" transform="translate(0,0)"/>
<path d="" fill="#0000FF" transform="translate(0,0)"/>
<path d="" fill="#0000FF" transform="translate(0,0)"/>
<path d="" fill="#0000FF" transform="translate(0,0)"/>
<path d="" fill="#0000FF" transform="translate(0,0)"/>
<path d="" fill="#0000FF" transform="translate(0,0)"/>
<path d="" fill="#0000FF" transform="translate(0,0)"/>
<path d="" fill="#0000FF" transform="translate(0,0)"/>
<path d="" fill="#0000FF" transform="translate(0,0)"/>
<path d="" fill="#007F7F" transform="translate(0,0)"/>
<path d="" fill="#0000FF" transform="translate(0,0)"/>
<path d="" fill="#0000FF" transform="translate(0,0)"/>
<path d="" fill="#003FBF" transform="translate(0,0)"/>
<path d="" fill="#0000FF" transform="translate(0,0)"/>
<path d="" fill="#0055AA" transform="translate(0,0)"/>
<path d="" fill="#007F7F" transform="translate(0,0)"/>
<path d="" fill="#007F7F" transform="translate(0,0)"/>
<path d="" fill="#0000FF" transform="translate(0,0)"/>
<path d="" fill="#0000FF" transform="translate(0,0)"/>
<path d="" fill="#0000FF" transform="translate(0,0)"/>
<path d="" fill="#0000FF" transform="translate(0,0)"/>
<path d="" fill="#0000FF" transform="translate(0,0)"/>
<path d="" fill="#0000FF" transform="translate(0,0)"/>
<path d="" fill="#0055AA" transform="translate(0,0)"/>
<path d="" fill="#0055AA" transform="translate(0,0)"/>
<path d="" fill="#0000FF" transform="translate(0,0)"/>
<path d="" fill="#007FFF" transform="translate(0,0)"/>
<path d="" fill="#0000FF" transform="translate(0,0)"/>
<path d="" fill="#0000FF" transform="translate(0,0)"/>
<path d="" fill="#0000FF" transform="translate(0,0)"/>
<path d="" fill="#0000FF" transform="translate(0,0)"/>
<path d="" fill="#0055AA" transform="translate(0,0)"/>
<path d="" fill="#007F7F" transform="translate(0,0)"/>
<path d="" fill="#007F7F" transform="translate(0,0)"/>
<path d="" fill="#0055AA" transform="translate(0,0)"/>
<path d="" fill="#0000FF" transform="translate(0,0)"/>
<path d="" fill="#0000FF" transform="translate(0,0)"/>
<path d="" fill="#0000FF" transform="translate(0,0)"/>
<path d="" fill="#0000FF" transform="translate(0,0)"/>
<path d="" fill="#0000FF" transform="translate(0,0)"/>
<path d="" fill="#0000FF" transform="translate(0,0)"/>
<path d="" fill="#0000FF" transform="translate(0,0)"/>
<path d="" fill="#0000FF" transform="translate(0,0)"/>
<path d="" fill="#0000FF" transform="translate(0,0)"/>
<path d="" fill="#0000FF" transform="translate(0,0)"/>
<path d="" fill="#007FFF" transform="translate(0,0)"/>
<path d="" fill="#0000FF" transform="translate(0,0)"/>
<path d="" fill="#0000FF" transform="translate(0,0)"/>
<path d="" fill="#0000FF" transform="translate(0,0)"/>
<path d="" fill="#0000FF" transform="translate(0,0)"/>
<path d="" fill="#0000FF" transform="translate(0,0)"/>
<path d="" fill="#003FBF" transform="translate(0,0)"/>
<path d="" fill="#007F7F" transform="translate(0,0)"/>
<path d="" fill="#0000FF" transform="translate(0,0)"/>
<path d="" fill="#0000FF" transform="translate(0,0)"/>
<path d="" fill="#0000FF" transform="translate(0,0)"/>
<path d="" fill="#0000FF" transform="translate(0,0)"/>
<path d="" fill="#007F7F" transform="translate(0,0)"/>
<path d="" fill="#0055AA" transform="translate(0,0)"/>
<path d="" fill="#007F7F" transform="translate(0,0)"/>
<path d="" fill="#0000FF" transform="translate(0,0)"/>
<path d="" fill="#0000FF" transform="translate(0,0)"/>
<path d="" fill="#0055AA" transform="translate(0,0)"/>
<path d="" fill="#0000FF" transform="translate(0,0)"/>
<path d="" fill="#007F7F" transform="translate(0,0)"/>
<path d="" fill="#0000FF" transform="translate(0,0)"/>
<path d="" fill="#0000FF" transform="translate(0,0)"/>
<path d="" fill="#0048B6" transform="translate(0,0)"/>
<path d="" fill="#007F7F" transform="translate(0,0)"/>
<path d="" fill="#0000FF" transform="translate(0,0)"/>
<path d="" fill="#0000FF" transform="translate(0,0)"/>
<path d="" fill="#0000FF" transform="translate(0,0)"/>
<path d="" fill="#007F7F" transform="translate(0,0)"/>
<path d="" fill="#0000FF" transform="translate(0,0)"/>
<path d="" fill="#003FBF" transform="translate(0,0)"/>
<path d="" fill="#0000FF" transform="translate(0,0)"/>
<path d="" fill="#0000FF" transform="translate(0,0)"/>
<path d="" fill="#0000FF" transform="translate(0,0)"/>
<path d="" fill="#0055AA" transform="translate(0,0)"/>
<path d="" fill="#0000FF" transform="translate(0,0)"/>
<path d="" fill="#007FFF" transform="translate(0,0)"/>
<path d="" fill="#0000FF" transform="translate(0,0)"/>
<path d="" fill="#0000FF" transform="translate(0,0)"/>
<path d="" fill="#0000FF" transform="translate(0,0)"/>
<path d="" fill="#007F7F" transform="translate(0,0)"/>
<path d="" fill="#007F7F" transform="translate(0,0)"/>
<path d="" fill="#007FFF" transform="translate(0,0)"/>
<path d="" fill="#0000FF" transform="translate(0,0)"/>
<path d="" fill="#0000FF" transform="translate(0,0)"/>
<path d="" fill="#007FFF" transform="translate(0,0)"/>
<path d="" fill="#0000FF" transform="translate(0,0)"/>
<path d="" fill="#007FFF" transform="translate(0,0)"/>
<path d="" fill="#0000FF" transform="translate(0,0)"/>
<path d="" fill="#0000FF" transform="translate(0,0)"/>
<path d="" fill="#0000FF" transform="translate(0,0)"/>
<path d="" fill="#0066CC" transform="translate(0,0)"/>
<path d="" fill="#0000FF" transform="translate(0,0)"/>
<path d="" fill="#0000FF" transform="translate(0,0)"/>
<path d="" fill="#0000FF" transform="translate(0,0)"/>
<path d="" fill="#0000FF" transform="translate(0,0)"/>
<path d="" fill="#0000FF" transform="translate(0,0)"/>
<path d="" fill="#0000FF" transform="translate(0,0)"/>
<path d="" fill="#007F7F" transform="translate(0,0)"/>
<path d="" fill="#0000FF" transform="translate(0,0)"/>
<path d="" fill="#0000FF" transform="translate(0,0)"/>
<path d="" fill="#0000FF" transform="translate(0,0)"/>
<path d="" fill="#0000FF" transform="translate(0,0)"/>
<path d="" fill="#0000FF" transform="translate(0,0)"/>
<path d="" fill="#0000FF" transform="translate(0,0)"/>
<path d="" fill="#0000FF" transform="translate(0,0)"/>
<path d="" fill="#0000FF" transform="translate(0,0)"/>
<path d="" fill="#0000FF" transform="translate(0,0)"/>
<path d="" fill="#0000FF" transform="translate(0,0)"/>
<path d="" fill="#0000FF" transform="translate(0,0)"/>
<path d="" fill="#006DDA" transform="translate(0,0)"/>
<path d="" fill="#0000FF" transform="translate(0,0)"/>
<path d="" fill="#0000FF" transform="translate(0,0)"/>
<path d="" fill="#0000FF" transform="translate(0,0)"/>
<path d="" fill="#0000FF" transform="translate(0,0)"/>
<path d="" fill="#007F7F" transform="translate(0,0)"/>
<path d="" fill="#0000FF" transform="translate(0,0)"/>
<path d="" fill="#0055FF" transform="translate(0,0)"/>
<path d="" fill="#0055AA" transform="translate(0,0)"/>
<path d="" fill="#0000FF" transform="translate(0,0)"/>
<path d="" fill="#0000FF" transform="translate(0,0)"/>
<path d="" fill="#0000FF" transform="translate(0,0)"/>
<path d="" fill="#0000FF" transform="translate(0,0)"/>
<path d="" fill="#0000FF" transform="translate(0,0)"/>
<path d="" fill="#0055FF" transform="translate(0,0)"/>
<path d="" fill="#0055AA" transform="translate(0,0)"/>
<path d="" fill="#007FFF" transform="translate(0,0)"/>
<path d="" fill="#0055FF" transform="translate(0,0)"/>
<path d="" fill="#0000FF" transform="translate(0,0)"/>
<path d="" fill="#0000FF" transform="translate(0,0)"/>
<path d="" fill="#0000FF" transform="translate(0,0)"/>
<path d="" fill="#0000FF" transform="translate(0,0)"/>
<path d="" fill="#0000FF" transform="translate(0,0)"/>
<path d="" fill="#0000FF" transform="translate(0,0)"/>
<path d="" fill="#0000FF" transform="translate(0,0)"/>
<path d="" fill="#0000FF" transform="translate(0,0)"/>
<path d="" fill="#0000FF" transform="translate(0,0)"/>
<path d="" fill="#007FFF" transform="translate(0,0)"/>
<path d="" fill="#0000FF" transform="translate(0,0)"/>
<path d="" fill="#0055AA" transform="translate(0,0)"/>
<path d="" fill="#0000FF" transform="translate(0,0)"/>
<path d="" fill="#007FFF" transform="translate(0,0)"/>
<path d="" fill="#007F7F" transform="translate(0,0)"/>
<path d="" fill="#007F7F" transform="translate(0,0)"/>
<path d="" fill="#007F7F" transform="translate(0,0)"/>
<path d="" fill="#007FBF" transform="translate(0,0)"/>
<path d="" fill="#007F7F" transform="translate(0,0)"/>
<path d="" fill="#0000FF" transform="translate(0,0)"/>
<path d="" fill="#007FFF" transform="translate(0,0)"/>
<path d="" fill="#0000FF" transform="translate(0,0)"/>
<path d="" fill="#0000FF" transform="translate(0,0)"/>
<path d="" fill="#007FFF" transform="translate(0,0)"/>
<path d="" fill="#0000FF" transform="translate(0,0)"/>
<path d="" fill="#005F9F" transform="translate(0,0)"/>
<path d="" fill="#007FBF" transform="translate(0,0)"/>
<path d="" fill="#0000FF" transform="translate(0,0)"/>
<path d="" fill="#0000FF" transform="translate(0,0)"/>
<path d="" fill="#00FFFF" transform="translate(0,0)"/>
<path d="" fill="#0000FF" transform="translate(0,0)"/>
<path d="" fill="#0000FF" transform="translate(0,0)"/>
<path d="" fill="#003FBF" transform="translate(0,0)"/>
<path d="" fill="#0000FF" transform="translate(0,0)"/>
<path d="" fill="#0000FF" transform="translate(0,0)"/>
<path d="" fill="#0000FF" transform="translate(0,0)"/>
<path d="" fill="#0000FF" transform="translate(0,0)"/>
<path d="" fill="#0000FF" transform="translate(0,0)"/>
<path d="" fill="#007FFF" transform="translate(0,0)"/>
<path d="" fill="#0000FF" transform="translate(0,0)"/>
<path d="" fill="#007FFF" transform="translate(0,0)"/>
<path d="" fill="#007FFF" transform="translate(0,0)"/>
<path d="" fill="#007F7F" transform="translate(0,0)"/>
<path d="" fill="#0000FF" transform="translate(0,0)"/>
<path d="" fill="#007FFF" transform="translate(0,0)"/>
<path d="" fill="#007FBF" transform="translate(0,0)"/>
<path d="" fill="#007F7F" transform="translate(0,0)"/>
<path d="" fill="#0000FF" transform="translate(0,0)"/>
<path d="" fill="#0000FF" transform="translate(0,0)"/>
<path d="" fill="#007FFF" transform="translate(0,0)"/>
<path d="" fill="#0000FF" transform="translate(0,0)"/>
<path d="" fill="#0000FF" transform="translate(0,0)"/>
<path d="" fill="#0000FF" transform="translate(0,0)"/>
<path d="" fill="#003F7F" transform="translate(0,0)"/>
</svg>
